<svg width="599" height="75" viewBox="0 0 599 75" fill="" xmlns="http://www.w3.org/2000/svg">
<path d="M23.9219 7.79688L24.9 8.00501L25.2952 6.14768L23.5401 6.87261L23.9219 7.79688ZM11.1719 33.5312L12.1277 33.2372L12.1196 33.2111L12.1102 33.1855L11.1719 33.5312ZM11.6406 34.6094L12.5089 34.1132L12.5036 34.104L12.4981 34.0949L11.6406 34.6094ZM11.8281 35.2656V36.2656H12.8281V35.2656H11.8281ZM4.23438 33.2031L4.88765 32.4459L4.87851 32.4382L4.23438 33.2031ZM2.92188 19.75L3.83512 20.1574L3.83739 20.1523L2.92188 19.75ZM6.76562 13.7969L7.5205 14.4528L7.52303 14.4498L6.76562 13.7969ZM12.3438 8.73438L12.9305 9.54413L12.9326 9.54261L12.3438 8.73438ZM19.4219 4.60938L19.0093 3.69845L19.0064 3.69978L19.4219 4.60938ZM39.1094 1.1875L40.0875 1.39563L40.3173 0.315561L39.2198 0.193616L39.1094 1.1875ZM23.8281 73V74H24.6377L24.8062 73.2081L23.8281 73ZM10.0469 73L9.06878 72.7919L8.81169 74H10.0469V73ZM23.5401 6.87261C19.062 8.72226 15.5821 11.5005 13.1478 15.2178L14.821 16.3135C17.0117 12.9682 20.1567 10.434 24.3036 8.72114L23.5401 6.87261ZM13.1478 15.2178C10.7078 18.9438 9.51562 23.4724 9.51562 28.75H11.5156C11.5156 23.7776 12.636 19.65 14.821 16.3135L13.1478 15.2178ZM9.51562 28.75C9.51562 30.8076 9.73859 32.5335 10.2335 33.877L12.1102 33.1855C11.7302 32.154 11.5156 30.6924 11.5156 28.75H9.51562ZM10.2161 33.8253C10.361 34.2963 10.5479 34.7318 10.7831 35.1239L12.4981 34.0949C12.3584 33.8619 12.2327 33.5787 12.1277 33.2372L10.2161 33.8253ZM10.7724 35.1055C10.8243 35.1964 10.8281 35.2458 10.8281 35.2656H12.8281C12.8281 34.8479 12.7069 34.4599 12.5089 34.1132L10.7724 35.1055ZM11.8281 34.2656C8.45459 34.2656 6.21412 33.5904 4.88761 32.446L3.58114 33.9603C5.44213 35.5658 8.26416 36.2656 11.8281 36.2656V34.2656ZM4.87851 32.4382C3.40788 31.1998 2.5625 29.1192 2.5625 25.9375H0.5625C0.5625 29.4433 1.49837 32.2065 3.59024 33.968L4.87851 32.4382ZM2.5625 25.9375C2.5625 23.9928 2.98243 22.0686 3.83511 20.1574L2.00864 19.3426C1.04882 21.4939 0.5625 23.6947 0.5625 25.9375H2.5625ZM3.83739 20.1523C4.6986 18.1923 5.92238 16.2921 7.5205 14.4527L6.01075 13.141C4.29637 15.1142 2.95765 17.1827 2.00636 19.3477L3.83739 20.1523ZM7.52303 14.4498C9.02961 12.7022 10.8301 11.0662 12.9305 9.54412L11.757 7.92463C9.54491 9.52757 7.62664 11.2666 6.00822 13.1439L7.52303 14.4498ZM12.9326 9.54261C15.0644 7.98948 17.3654 6.64812 19.8374 5.51897L19.0064 3.69978C16.4158 4.88313 13.9981 6.29177 11.7549 7.92614L12.9326 9.54261ZM19.8345 5.52029C25.0318 3.1662 30.173 2 35.2656 2V0C29.8583 0 24.4369 1.24005 19.0093 3.69846L19.8345 5.52029ZM35.2656 2C36.6755 2 37.9188 2.06137 38.9989 2.18138L39.2198 0.193616C38.0499 0.0636283 36.7307 0 35.2656 0V2ZM38.1313 0.979366L22.85 72.7919L24.8062 73.2081L40.0875 1.39563L38.1313 0.979366ZM23.8281 72H10.0469V74H23.8281V72ZM11.025 73.2081L24.9 8.00501L22.9438 7.58874L9.06878 72.7919L11.025 73.2081ZM107.359 70.1875L108.122 69.5411L108.119 69.5377L107.359 70.1875ZM105.391 57.7188L104.409 57.5257L104.408 57.5335L104.406 57.5413L105.391 57.7188ZM107.031 50.3594L108.004 50.5924L108.005 50.5879L107.031 50.3594ZM108.625 43.0469L107.645 42.8475L107.643 42.8605L108.625 43.0469ZM101.219 35.9219L100.438 35.2972L100.433 35.3033L101.219 35.9219ZM98.2188 42.2031L97.2637 41.9067L97.25 41.9509L97.2404 41.9961L98.2188 42.2031ZM91.7031 73V74H92.5137L92.6815 73.207L91.7031 73ZM77.875 73L76.8968 72.7925L76.6406 74H77.875V73ZM84.9062 39.8594L83.9361 39.6168L83.9318 39.6343L83.928 39.6518L84.9062 39.8594ZM84.5781 34.5156L85.4391 34.0069L85.4319 33.9948L85.4244 33.9828L84.5781 34.5156ZM77.5469 35.875L78.3309 36.4957L78.3355 36.4899L78.34 36.484L77.5469 35.875ZM74.5 42.2031L73.5449 41.9067L73.5312 41.9509L73.5217 41.9961L74.5 42.2031ZM67.9844 73V74H68.7949L68.9627 73.207L67.9844 73ZM54.1562 73L53.178 72.7927L52.9221 74H54.1562V73ZM64.3281 25V24H63.5178L63.3498 24.7927L64.3281 25ZM78.1562 25L79.1354 25.2032L79.3851 24H78.1562V25ZM77.125 29.9688L76.1459 29.7655L75.3906 33.4045L77.87 30.6359L77.125 29.9688ZM83.2656 25.5156L82.9145 24.5793L82.9066 24.5823L82.8988 24.5854L83.2656 25.5156ZM95.2656 26.4062L95.8853 25.6214L95.8828 25.6194L95.2656 26.4062ZM98.6875 32.7812L97.7026 32.9544L98.1436 35.4626L99.5271 33.3245L98.6875 32.7812ZM105.812 26.0312L106.251 26.9298L106.254 26.9286L105.812 26.0312ZM119.688 27.1562L120.365 26.421L120.356 26.413L119.688 27.1562ZM121.516 44.125L120.537 43.9177L120.536 43.925L121.516 44.125ZM120.391 48.7656L119.428 48.496L119.425 48.5048L119.423 48.5136L120.391 48.7656ZM118.469 57.0625L117.488 56.8687L117.486 56.8754L118.469 57.0625ZM118.938 63.25L118.15 63.8663L118.165 63.8853L118.181 63.9036L118.938 63.25ZM126.766 61.9375L126.001 61.2934L126 61.2943L126.766 61.9375ZM130 55.7969V54.7969H129.322L129.071 55.4272L130 55.7969ZM134.031 55.7969L134.979 56.1169L135.425 54.7969H134.031V55.7969ZM125.031 70.5625L124.418 69.7724L124.416 69.7742L125.031 70.5625ZM116.172 72.5625C112.39 72.5625 109.779 71.496 108.122 69.5411L106.596 70.8339C108.753 73.379 112.017 74.5625 116.172 74.5625V72.5625ZM108.119 69.5377C106.646 67.8143 105.875 65.5747 105.875 62.7344H103.875C103.875 65.9566 104.76 68.6857 106.599 70.8373L108.119 69.5377ZM105.875 62.7344C105.875 61.3728 106.038 59.7626 106.375 57.8962L104.406 57.5413C104.056 59.4874 103.875 61.221 103.875 62.7344H105.875ZM106.372 57.9118C106.743 56.0243 107.287 53.5858 108.004 50.5924L106.059 50.1264C105.338 53.1329 104.788 55.6007 104.409 57.5257L106.372 57.9118ZM108.005 50.5879C108.725 47.5196 109.26 45.0662 109.607 43.2332L107.643 42.8605C107.303 44.6525 106.775 47.0741 106.058 50.1309L108.005 50.5879ZM109.605 43.2462C109.988 41.3607 110.188 39.6969 110.188 38.2656H108.188C108.188 39.5218 108.012 41.0455 107.645 42.8476L109.605 43.2462ZM110.188 38.2656C110.188 36.5381 109.889 35.0636 109.138 33.9981C108.342 32.8686 107.143 32.3438 105.719 32.3438V34.3438C106.607 34.3438 107.143 34.6392 107.503 35.1503C107.908 35.7254 108.188 36.7119 108.188 38.2656H110.188ZM105.719 32.3438C103.691 32.3438 101.931 33.4309 100.438 35.2972L102 36.5466C103.257 34.9754 104.496 34.3438 105.719 34.3438V32.3438ZM100.433 35.3033C99.1723 36.9048 98.1267 39.1259 97.2637 41.9067L99.1738 42.4995C99.9983 39.8428 100.953 37.8765 102.004 36.5404L100.433 35.3033ZM97.2404 41.9961L90.7248 72.793L92.6815 73.207L99.1971 42.4101L97.2404 41.9961ZM91.7031 72H77.875V74H91.7031V72ZM78.8532 73.2075L85.8845 40.0669L83.928 39.6518L76.8968 72.7925L78.8532 73.2075ZM85.8764 40.1019C86.0854 39.2657 86.1875 38.3869 86.1875 37.4688H84.1875C84.1875 38.2381 84.1021 38.953 83.9361 39.6168L85.8764 40.1019ZM86.1875 37.4688C86.1875 36.1062 85.9757 34.9151 85.4391 34.0069L83.7172 35.0244C83.993 35.4912 84.1875 36.2688 84.1875 37.4688H86.1875ZM85.4244 33.9828C84.7094 32.8472 83.6236 32.25 82.2812 32.25V34.25C82.9389 34.25 83.3844 34.4965 83.7319 35.0484L85.4244 33.9828ZM82.2812 32.25C80.0898 32.25 78.2409 33.3292 76.7537 35.266L78.34 36.484C79.5403 34.9208 80.8477 34.25 82.2812 34.25V32.25ZM76.7628 35.2543C75.4711 36.886 74.4091 39.1222 73.5449 41.9067L75.4551 42.4995C76.2784 39.8465 77.2477 37.864 78.3309 36.4957L76.7628 35.2543ZM73.5217 41.9961L67.006 72.793L68.9627 73.207L75.4783 42.4101L73.5217 41.9961ZM67.9844 72H54.1562V74H67.9844V72ZM55.1345 73.2073L65.3064 25.2073L63.3498 24.7927L53.178 72.7927L55.1345 73.2073ZM64.3281 26H78.1562V24H64.3281V26ZM77.1771 24.7968L76.1459 29.7655L78.1041 30.172L79.1354 25.2032L77.1771 24.7968ZM77.87 30.6359C79.6596 28.6375 81.5822 27.2545 83.6325 26.4459L82.8988 24.5854C80.5115 25.5268 78.3404 27.1125 76.38 29.3016L77.87 30.6359ZM83.6167 26.452C85.2486 25.84 86.9884 25.5312 88.8438 25.5312V23.5312C86.7616 23.5312 84.7827 23.8787 82.9145 24.5793L83.6167 26.452ZM88.8438 25.5312C91.3806 25.5312 93.2808 26.1204 94.6485 27.1931L95.8828 25.6194C94.0629 24.1921 91.6819 23.5312 88.8438 23.5312V25.5312ZM94.646 27.1911C96.1865 28.4073 97.2332 30.2845 97.7026 32.9544L99.6724 32.6081C99.1418 29.5905 97.9073 27.2177 95.8853 25.6214L94.646 27.1911ZM99.5271 33.3245C101.517 30.2491 103.766 28.1437 106.251 26.9298L105.374 25.1327C102.484 26.5438 99.983 28.9384 97.8479 32.238L99.5271 33.3245ZM106.254 26.9286C108.015 26.0626 109.941 25.625 112.047 25.625V23.625C109.653 23.625 107.423 24.1249 105.371 25.1339L106.254 26.9286ZM112.047 25.625C115.089 25.625 117.374 26.419 119.019 27.8995L120.356 26.413C118.251 24.5185 115.442 23.625 112.047 23.625V25.625ZM119.01 27.8915C120.739 29.4857 121.688 31.9416 121.688 35.4531H123.688C123.688 31.5896 122.636 28.5143 120.365 26.421L119.01 27.8915ZM121.688 35.4531C121.688 37.4428 121.314 40.2535 120.537 43.9177L122.494 44.3323C123.28 40.6215 123.688 37.6509 123.688 35.4531H121.688ZM120.536 43.925C120.228 45.432 119.859 46.9556 119.428 48.496L121.354 49.0353C121.797 47.4506 122.178 45.8805 122.495 44.325L120.536 43.925ZM119.423 48.5136C118.638 51.5292 117.992 54.3145 117.488 56.8687L119.45 57.2563C119.945 54.748 120.581 52.0021 121.358 49.0176L119.423 48.5136ZM117.486 56.8754C117.231 58.2156 117.094 59.3477 117.094 60.25H119.094C119.094 59.5273 119.206 58.5344 119.451 57.2496L117.486 56.8754ZM117.094 60.25C117.094 61.6663 117.404 62.9128 118.15 63.8663L119.725 62.6337C119.346 62.1497 119.094 61.3962 119.094 60.25H117.094ZM118.181 63.9036C119.048 64.9081 120.4 65.2812 121.938 65.2812V63.2812C120.663 63.2812 120.014 62.9669 119.694 62.5964L118.181 63.9036ZM121.938 65.2812C124.162 65.2812 126.044 64.3512 127.531 62.5807L126 61.2943C124.862 62.6488 123.525 63.2812 121.938 63.2812V65.2812ZM127.531 62.5816C128.639 61.2653 129.765 59.0927 130.929 56.1665L129.071 55.4272C127.922 58.3136 126.892 60.2347 126.001 61.2934L127.531 62.5816ZM130 56.7969H134.031V54.7969H130V56.7969ZM133.084 55.4769C130.736 62.4265 127.819 67.1337 124.418 69.7724L125.644 71.3526C129.493 68.3663 132.576 63.2297 134.979 56.1169L133.084 55.4769ZM124.416 69.7742C122.035 71.6328 119.3 72.5625 116.172 72.5625V74.5625C119.732 74.5625 122.903 73.4922 125.647 71.3508L124.416 69.7742ZM132.672 70.1406L131.956 70.8394L131.96 70.8428L132.672 70.1406ZM129.438 51.0156L130.42 51.1999L130.423 51.188L129.438 51.0156ZM131.406 43.6094L130.466 43.2676L130.465 43.2715L131.406 43.6094ZM139.609 30.2969L138.916 29.5758L138.912 29.5801L139.609 30.2969ZM159.25 25.8906L158.673 26.707L158.684 26.715L158.695 26.7227L159.25 25.8906ZM161.219 30.1094H160.219L162.199 30.3072L161.219 30.1094ZM162.25 25V24H161.432L161.27 24.8022L162.25 25ZM176.078 25L177.057 25.2066L177.311 24H176.078V25ZM169.188 57.625L170.145 57.9123L170.157 57.8724L170.166 57.8316L169.188 57.625ZM177.484 62.1719L176.708 61.5413L176.706 61.5439L177.484 62.1719ZM180.484 55.7969V54.7969H179.729L179.522 55.5236L180.484 55.7969ZM184.516 55.7969L185.459 56.1294L185.929 54.7969H184.516V55.7969ZM178.281 67.375L179.032 68.0357L179.041 68.0258L178.281 67.375ZM171.297 72.4375L171.663 73.3681L171.666 73.3667L171.297 72.4375ZM158.734 71.3594L158.049 72.0876L158.056 72.0945L158.064 72.1012L158.734 71.3594ZM155.828 64.75L156.821 64.6325L156.515 62.0467L155.012 64.1725L155.828 64.75ZM150.109 70.75L149.526 69.938L149.519 69.943L150.109 70.75ZM150.016 63.7188L149.597 62.8108L149.59 62.814L149.583 62.8172L150.016 63.7188ZM152.359 62.125L153.035 62.8622L153.044 62.8538L153.053 62.8453L152.359 62.125ZM155.734 55.7969L156.712 56.0088L156.713 56.0044L155.734 55.7969ZM160.328 34.1406L161.306 34.3481L161.328 34.2455V34.1406H160.328ZM160.094 33.0625L159.132 33.3372L159.144 33.38L159.16 33.4215L160.094 33.0625ZM159.531 31.8438L160.363 31.289L160.335 31.246L160.302 31.2062L159.531 31.8438ZM152.641 31.75L152.071 30.9277L152.061 30.9348L152.641 31.75ZM149.266 35.2656L148.45 34.6876L148.442 34.6979L149.266 35.2656ZM144.625 45.9062L145.585 46.1851L145.588 46.1746L144.625 45.9062ZM143.359 51.6719L144.348 51.8202L144.349 51.8178L143.359 51.6719ZM144.719 63.25L145.452 62.5695L145.43 62.5461L145.406 62.524L144.719 63.25ZM141.531 72.5625C138.101 72.5625 135.419 71.5017 133.384 69.4384L131.96 70.8428C134.425 73.342 137.649 74.5625 141.531 74.5625V72.5625ZM133.387 69.4419C131.009 67.0068 129.734 63.3009 129.734 58.1406H127.734C127.734 63.6053 129.085 67.8994 131.956 70.8394L133.387 69.4419ZM129.734 58.1406C129.734 55.9598 129.962 53.6469 130.42 51.1999L128.455 50.8313C127.976 53.3844 127.734 55.8214 127.734 58.1406H129.734ZM130.423 51.188C130.85 48.7455 131.491 46.332 132.347 43.9472L130.465 43.2715C129.571 45.7617 128.9 48.2858 128.452 50.8432L130.423 51.188ZM132.346 43.9511C134.305 38.5636 136.966 34.2638 140.307 31.0136L138.912 29.5801C135.315 33.08 132.507 37.6552 130.466 43.2676L132.346 43.9511ZM140.302 31.0179C144.129 27.3407 148.494 25.5312 153.438 25.5312V23.5312C147.943 23.5312 143.09 25.5655 138.916 29.5758L140.302 31.0179ZM153.438 25.5312C155.947 25.5312 157.638 25.9755 158.673 26.707L159.827 25.0742C158.299 23.9932 156.116 23.5312 153.438 23.5312V25.5312ZM158.695 26.7227C159.754 27.4285 160.219 28.3002 160.219 29.4062H162.219C162.219 27.5748 161.371 26.1027 159.805 25.0586L158.695 26.7227ZM160.219 29.4062V30.1094H162.219V29.4062H160.219ZM162.199 30.3072L163.23 25.1978L161.27 24.8022L160.239 29.9115L162.199 30.3072ZM162.25 26H176.078V24H162.25V26ZM175.1 24.7934L168.209 57.4184L170.166 57.8316L177.057 25.2066L175.1 24.7934ZM168.23 57.3377C167.917 58.3811 167.766 59.5106 167.766 60.7188H169.766C169.766 59.6769 169.896 58.7439 170.145 57.9123L168.23 57.3377ZM167.766 60.7188C167.766 62.2366 168.127 63.5606 169.027 64.503C169.935 65.4541 171.224 65.8438 172.703 65.8438V63.8438C171.557 63.8438 170.878 63.5459 170.473 63.122C170.06 62.6894 169.766 61.9509 169.766 60.7188H167.766ZM172.703 65.8438C174.843 65.8438 176.698 64.7383 178.263 62.7999L176.706 61.5439C175.396 63.1679 174.063 63.8438 172.703 63.8438V65.8438ZM178.26 62.8025C179.596 61.1593 180.644 58.8936 181.446 56.0702L179.522 55.5236C178.762 58.2001 177.811 60.1844 176.708 61.5413L178.26 62.8025ZM180.484 56.7969H184.516V54.7969H180.484V56.7969ZM183.573 55.4644C181.88 60.2641 179.855 64.0026 177.522 66.7242L179.041 68.0258C181.583 65.0599 183.713 61.0797 185.459 56.1294L183.573 55.4644ZM177.531 66.7144C175.56 68.954 173.358 70.5418 170.927 71.5083L171.666 73.3667C174.423 72.2707 176.878 70.4835 179.032 68.0356L177.531 66.7144ZM170.931 71.5069C169.145 72.2093 167.254 72.5625 165.25 72.5625V74.5625C167.496 74.5625 169.636 74.1657 171.663 73.3681L170.931 71.5069ZM165.25 72.5625C162.717 72.5625 160.805 71.8826 159.405 70.6175L158.064 72.1012C159.914 73.7737 162.346 74.5625 165.25 74.5625V72.5625ZM159.42 70.6312C158.047 69.3396 157.147 67.3846 156.821 64.6325L154.835 64.8675C155.197 67.9279 156.234 70.3792 158.049 72.0876L159.42 70.6312ZM155.012 64.1725C153.247 66.6681 151.415 68.5802 149.526 69.938L150.693 71.562C152.804 70.0448 154.785 67.9569 156.645 65.3275L155.012 64.1725ZM149.519 69.943C147.127 71.6934 144.474 72.5625 141.531 72.5625V74.5625C144.901 74.5625 147.967 73.5566 150.7 71.557L149.519 69.943ZM147.766 65.2812C148.662 65.2812 149.559 65.047 150.448 64.6203L149.583 62.8172C148.909 63.1405 148.307 63.2812 147.766 63.2812V65.2812ZM150.435 64.6267C151.353 64.2029 152.219 63.6101 153.035 62.8622L151.684 61.3878C151 62.0149 150.303 62.4846 149.597 62.8108L150.435 64.6267ZM153.053 62.8453C154.902 61.065 156.113 58.7698 156.712 56.0088L154.757 55.5849C154.231 58.0115 153.192 59.935 151.666 61.4047L153.053 62.8453ZM156.713 56.0044L161.306 34.3481L159.35 33.9331L154.756 55.5894L156.713 56.0044ZM161.328 34.1406C161.328 33.6675 161.211 33.1826 161.027 32.7035L159.16 33.4215C159.289 33.7549 159.328 33.9888 159.328 34.1406H161.328ZM161.055 32.7878C160.902 32.2518 160.671 31.751 160.363 31.289L158.699 32.3985C158.891 32.6865 159.035 32.9982 159.132 33.3372L161.055 32.7878ZM160.302 31.2062C159.333 30.0361 157.985 29.4844 156.391 29.4844V31.4844C157.484 31.4844 158.229 31.8389 158.761 32.4813L160.302 31.2062ZM156.391 29.4844C154.875 29.4844 153.43 29.987 152.071 30.9278L153.21 32.5722C154.288 31.8255 155.343 31.4844 156.391 31.4844V29.4844ZM152.061 30.9348C150.762 31.8583 149.561 33.1188 148.45 34.6876L150.082 35.8436C151.095 34.4125 152.144 33.3292 153.22 32.5652L152.061 30.9348ZM148.442 34.6979C146.486 37.5351 144.9 41.1932 143.662 45.6379L145.588 46.1746C146.788 41.8693 148.296 38.4337 150.089 35.8334L148.442 34.6979ZM143.665 45.6274C143.09 47.6065 142.658 49.5727 142.37 51.5259L144.349 51.8178C144.623 49.9585 145.035 48.081 145.585 46.1851L143.665 45.6274ZM142.37 51.5235C142.083 53.4366 141.938 55.1903 141.938 56.7812H143.938C143.938 55.3097 144.073 53.6572 144.348 51.8202L142.37 51.5235ZM141.938 56.7812C141.938 60.0125 142.523 62.5472 144.031 63.976L145.406 62.524C144.54 61.7028 143.938 59.925 143.938 56.7812H141.938ZM143.986 63.9305C144.503 64.487 145.119 64.8848 145.836 65.0639L146.321 63.1236C146.037 63.0527 145.747 62.888 145.452 62.5695L143.986 63.9305ZM145.836 65.0639C146.43 65.2124 147.076 65.2812 147.766 65.2812V63.2812C147.206 63.2812 146.727 63.2251 146.321 63.1236L145.836 65.0639ZM207.578 70.75L206.9 71.4848L206.905 71.4899L207.578 70.75ZM205.094 57.625L204.116 57.4171L204.114 57.4224L205.094 57.625ZM205.891 53.875L204.922 53.6251L204.917 53.646L204.912 53.6671L205.891 53.875ZM205.469 46.9375L204.632 47.4847L204.637 47.4923L204.642 47.4998L205.469 46.9375ZM195.719 49.2812L195.082 48.5103L194.813 48.7327L194.74 49.0744L195.719 49.2812ZM190.703 73V74H191.514L191.681 73.2069L190.703 73ZM176.875 73L175.897 72.7915L175.639 74H176.875V73ZM190.797 7.70312L190.663 6.71216L189.966 6.8065L189.819 7.4946L190.797 7.70312ZM205 5.78125L205.978 5.98883L206.273 4.59989L204.866 4.79028L205 5.78125ZM197.828 39.5781L196.85 39.3705L196.277 42.0725L198.447 40.3638L197.828 39.5781ZM216.344 25V24H215.997L215.725 24.2143L216.344 25ZM225.859 25L226.43 25.8211L229.05 24H225.859V25ZM206.641 38.3594L206.07 37.5383L206.89 39.3279L206.641 38.3594ZM214.422 38.8281L214.01 39.7392L214.023 39.7451L214.036 39.7506L214.422 38.8281ZM217.797 41.2656L218.561 40.6207L218.558 40.6167L217.797 41.2656ZM219.719 44.8281L218.766 45.1313L218.768 45.1377L219.719 44.8281ZM220 52.8438L219.032 52.5939L219.028 52.6088L219.024 52.6238L220 52.8438ZM218.922 57.625L219.879 57.915L219.889 57.8803L219.897 57.845L218.922 57.625ZM219.297 63.3438L218.538 63.9945L218.545 64.0037L218.554 64.0127L219.297 63.3438ZM227.031 61.9375L226.266 61.2934L226.266 61.2943L227.031 61.9375ZM230.266 55.7969V54.7969H229.587L229.336 55.4272L230.266 55.7969ZM234.297 55.7969L235.246 56.1106L235.68 54.7969H234.297V55.7969ZM225.062 70.7031L224.465 69.9015L224.456 69.9079L225.062 70.7031ZM216.625 72.5625C212.8 72.5625 210.064 71.6585 208.251 70.0101L206.905 71.4899C209.217 73.5915 212.512 74.5625 216.625 74.5625V72.5625ZM208.256 70.0152C206.484 68.3789 205.531 65.975 205.531 62.6406H203.531C203.531 66.3687 204.61 69.3711 206.9 71.4848L208.256 70.0152ZM205.531 62.6406C205.531 61.1898 205.709 59.5867 206.073 57.8276L204.114 57.4224C203.728 59.2883 203.531 61.029 203.531 62.6406H205.531ZM206.072 57.8329L206.869 54.0829L204.912 53.6671L204.116 57.4171L206.072 57.8329ZM206.859 54.1249C207.136 53.0505 207.266 51.7897 207.266 50.3594H205.266C205.266 51.6791 205.145 52.762 204.922 53.6251L206.859 54.1249ZM207.266 50.3594C207.266 48.7671 206.988 47.3936 206.296 46.3752L204.642 47.4998C205.012 48.0439 205.266 48.9516 205.266 50.3594H207.266ZM206.306 46.3903C205.537 45.2146 204.275 44.7188 202.797 44.7188V46.7188C203.819 46.7188 204.338 47.0354 204.632 47.4847L206.306 46.3903ZM202.797 44.7188C201.569 44.7188 200.332 45.0728 199.096 45.725L200.029 47.4938C201.043 46.9585 201.962 46.7188 202.797 46.7188V44.7188ZM199.096 45.725C197.889 46.3616 196.55 47.2974 195.082 48.5103L196.356 50.0522C197.762 48.8901 198.986 48.0446 200.029 47.4938L199.096 45.725ZM194.74 49.0744L189.725 72.7931L191.681 73.2069L196.697 49.4881L194.74 49.0744ZM190.703 72H176.875V74H190.703V72ZM177.853 73.2085L191.775 7.91165L189.819 7.4946L175.897 72.7915L177.853 73.2085ZM190.931 8.69409L205.134 6.77222L204.866 4.79028L190.663 6.71216L190.931 8.69409ZM204.022 5.57367L196.85 39.3705L198.806 39.7857L205.978 5.98883L204.022 5.57367ZM198.447 40.3638L216.962 25.7857L215.725 24.2143L197.21 38.7924L198.447 40.3638ZM216.344 26H225.859V24H216.344V26ZM225.289 24.1789L206.07 37.5383L207.211 39.1805L226.43 25.8211L225.289 24.1789ZM206.89 39.3279C207.91 39.0656 208.888 38.9375 209.828 38.9375V36.9375C208.705 36.9375 207.559 37.0907 206.392 37.3909L206.89 39.3279ZM209.828 38.9375C211.466 38.9375 212.851 39.2153 214.01 39.7392L214.834 37.917C213.367 37.2535 211.69 36.9375 209.828 36.9375V38.9375ZM214.036 39.7506C215.241 40.2552 216.236 40.9765 217.036 41.9146L218.558 40.6167C217.545 39.4297 216.29 38.526 214.808 37.9057L214.036 39.7506ZM217.033 41.9105C217.783 42.8002 218.364 43.8686 218.766 45.1313L220.672 44.5249C220.198 43.0377 219.498 41.731 218.561 40.6208L217.033 41.9105ZM218.768 45.1377C219.17 46.3715 219.375 47.7191 219.375 49.1875H221.375C221.375 47.5309 221.143 45.9722 220.67 44.5185L218.768 45.1377ZM219.375 49.1875C219.375 50.6074 219.253 51.7351 219.032 52.5939L220.968 53.0936C221.247 52.0149 221.375 50.7051 221.375 49.1875H219.375ZM219.024 52.6238L217.946 57.405L219.897 57.845L220.976 53.0637L219.024 52.6238ZM217.965 57.335C217.625 58.456 217.453 59.5849 217.453 60.7188H219.453C219.453 59.7901 219.594 58.8565 219.879 57.915L217.965 57.335ZM217.453 60.7188C217.453 61.986 217.782 63.113 218.538 63.9945L220.056 62.693C219.687 62.262 219.453 61.639 219.453 60.7188H217.453ZM218.554 64.0127C219.397 64.9503 220.719 65.2812 222.203 65.2812V63.2812C220.937 63.2812 220.321 62.9872 220.04 62.6748L218.554 64.0127ZM222.203 65.2812C224.428 65.2812 226.31 64.3512 227.797 62.5807L226.266 61.2943C225.128 62.6488 223.791 63.2812 222.203 63.2812V65.2812ZM227.796 62.5816C228.905 61.2653 230.031 59.0927 231.195 56.1665L229.336 55.4272C228.188 58.3136 227.158 60.2347 226.266 61.2934L227.796 62.5816ZM230.266 56.7969H234.297V54.7969H230.266V56.7969ZM233.347 55.4832C231.034 62.485 228.043 67.2324 224.465 69.9016L225.66 71.5047C229.707 68.4864 232.872 63.2962 235.246 56.1106L233.347 55.4832ZM224.456 69.9079C222.129 71.6822 219.529 72.5625 216.625 72.5625V74.5625C219.971 74.5625 222.996 73.5366 225.669 71.4983L224.456 69.9079ZM233.125 70L232.444 70.7319L232.445 70.7334L233.125 70ZM229.656 51.7656L230.642 51.9321L230.644 51.9196L229.656 51.7656ZM231.391 44.5469L230.44 44.2373L230.44 44.2381L231.391 44.5469ZM234.719 36.9062L233.85 36.4101L233.846 36.4187L234.719 36.9062ZM239.5 30.5312L238.788 29.8294L238.787 29.8302L239.5 30.5312ZM263.5 26.9688L264.23 26.2853L264.225 26.28L263.5 26.9688ZM263.781 41.0312L264.676 41.4785L264.678 41.4738L263.781 41.0312ZM258.859 47.3594L259.514 48.1155L259.52 48.1099L258.859 47.3594ZM251.734 51.7188L252.106 52.6473L252.115 52.6434L251.734 51.7188ZM243.484 53.5938L243.419 52.5959L242.57 52.6518L242.489 53.498L243.484 53.5938ZM245.031 63.9062L245.749 63.2098L245.744 63.2044L245.738 63.1991L245.031 63.9062ZM259.703 62.6875L259.163 61.8456L259.157 61.8499L259.703 62.6875ZM263.219 59.9219L263.905 60.6489L263.911 60.6439L263.916 60.6389L263.219 59.9219ZM267.156 55.7969V54.7969H266.713L266.415 55.1256L267.156 55.7969ZM270.438 55.7969L271.298 56.306L272.191 54.7969H270.438V55.7969ZM259.984 68.0312L260.59 68.8269L260.594 68.8236L259.984 68.0312ZM244.234 49L243.252 48.8112L243.007 50.0886L244.304 49.9975L244.234 49ZM253.938 43.8906L254.683 44.557L254.69 44.5491L253.938 43.8906ZM257.031 38.875L257.958 39.2518L257.96 39.2464L257.031 38.875ZM257.594 30.25L256.699 30.6972L256.712 30.722L256.726 30.7461L257.594 30.25ZM252.25 30.9062L251.562 30.1802L251.553 30.1895L252.25 30.9062ZM248.875 35.5469L248.001 35.0612L247.996 35.0701L248.875 35.5469ZM244.047 72.5625C239.49 72.5625 236.126 71.4176 233.805 69.2666L232.445 70.7334C235.249 73.3324 239.166 74.5625 244.047 74.5625V72.5625ZM233.806 69.2681C231.363 66.9934 230.047 63.4179 230.047 58.3281H228.047C228.047 63.7384 229.449 67.9441 232.444 70.7319L233.806 69.2681ZM230.047 58.3281C230.047 56.4265 230.243 54.2958 230.642 51.9321L228.67 51.5991C228.257 54.0479 228.047 56.2922 228.047 58.3281H230.047ZM230.644 51.9196C231.011 49.5679 231.576 47.2133 232.342 44.8557L230.44 44.2381C229.642 46.6929 229.052 49.1509 228.668 51.6116L230.644 51.9196ZM232.341 44.8565C233.197 42.2291 234.281 39.742 235.592 37.3938L233.846 36.4187C232.469 38.883 231.334 41.4897 230.44 44.2373L232.341 44.8565ZM235.587 37.4024C236.922 35.0655 238.465 33.0105 240.213 31.2323L238.787 29.8302C236.91 31.7395 235.265 33.9345 233.851 36.4101L235.587 37.4024ZM240.212 31.2331C244.206 27.1795 249.104 25.1562 254.969 25.1562V23.1562C248.584 23.1562 243.169 25.383 238.788 29.8294L240.212 31.2331ZM254.969 25.1562C258.74 25.1562 261.261 26.0634 262.775 27.6575L264.225 26.28C262.177 24.1241 259.01 23.1562 254.969 23.1562V25.1562ZM262.77 27.6522C263.914 28.8747 264.562 30.7183 264.562 33.3438H266.562C266.562 30.4067 265.836 28.0003 264.23 26.2853L262.77 27.6522ZM264.562 33.3438C264.562 35.9111 264.003 38.322 262.885 40.5887L264.678 41.4738C265.934 38.928 266.562 36.2139 266.562 33.3438H264.562ZM262.887 40.584C261.76 42.8381 260.201 44.8459 258.198 46.6089L259.52 48.1099C261.706 46.1854 263.428 43.9744 264.676 41.4785L262.887 40.584ZM258.205 46.6033C256.196 48.3426 253.914 49.7398 251.354 50.7941L252.115 52.6434C254.867 51.5102 257.336 50.0012 259.514 48.1154L258.205 46.6033ZM251.363 50.7903C248.804 51.8139 246.157 52.4154 243.419 52.5959L243.55 54.5916C246.499 54.3971 249.352 53.7486 252.106 52.6472L251.363 50.7903ZM242.489 53.498C242.332 55.1353 242.25 56.4531 242.25 57.4375H244.25C244.25 56.5469 244.325 55.3022 244.48 53.6895L242.489 53.498ZM242.25 57.4375C242.25 60.6225 242.842 63.131 244.324 64.6134L245.738 63.1991C244.846 62.3065 244.25 60.5025 244.25 57.4375H242.25ZM244.314 64.6027C245.622 65.951 247.673 66.5 250.188 66.5V64.5C247.889 64.5 246.503 63.9865 245.749 63.2098L244.314 64.6027ZM250.188 66.5C253.848 66.5 257.21 65.5073 260.249 63.5251L259.157 61.8499C256.446 63.6177 253.464 64.5 250.188 64.5V66.5ZM260.243 63.5294C261.517 62.7123 262.738 61.7513 263.905 60.6489L262.532 59.1949C261.449 60.2175 260.326 61.1002 259.163 61.8456L260.243 63.5294ZM263.916 60.6389C265.061 59.5256 266.389 58.1341 267.897 56.4682L266.415 55.1256C264.924 56.7721 263.627 58.1306 262.522 59.2049L263.916 60.6389ZM267.156 56.7969H270.438V54.7969H267.156V56.7969ZM269.577 55.2878C266.598 60.3245 263.193 64.299 259.374 67.2389L260.594 68.8236C264.651 65.701 268.215 61.5193 271.298 56.306L269.577 55.2878ZM259.379 67.2356C254.699 70.798 249.597 72.5625 244.047 72.5625V74.5625C250.059 74.5625 255.582 72.6395 260.59 68.8269L259.379 67.2356ZM244.304 49.9975C246.237 49.8619 248.108 49.3024 249.911 48.3341L248.964 46.5721C247.392 47.4164 245.794 47.8881 244.164 48.0025L244.304 49.9975ZM249.911 48.3341C251.704 47.3712 253.295 46.1101 254.683 44.557L253.192 43.2243C251.955 44.6087 250.546 45.7226 248.964 46.5721L249.911 48.3341ZM254.69 44.5491C256.076 42.9656 257.166 41.1986 257.958 39.2518L256.105 38.4982C255.397 40.2389 254.424 41.8156 253.185 43.2321L254.69 44.5491ZM257.96 39.2464C258.755 37.2583 259.156 35.2263 259.156 33.1562H257.156C257.156 34.9612 256.808 36.7417 256.103 38.5036L257.96 39.2464ZM259.156 33.1562C259.156 31.8074 258.964 30.6325 258.462 29.7539L256.726 30.7461C256.973 31.18 257.156 31.9426 257.156 33.1562H259.156ZM258.488 29.8028C258.236 29.2991 257.866 28.885 257.37 28.6056C256.882 28.3304 256.333 28.2188 255.766 28.2188V30.2188C256.074 30.2188 256.266 30.2789 256.388 30.3475C256.502 30.4119 256.607 30.5134 256.699 30.6972L258.488 29.8028ZM255.766 28.2188C254.264 28.2188 252.858 28.9525 251.562 30.1803L252.938 31.6322C254.017 30.61 254.955 30.2188 255.766 30.2188V28.2188ZM251.553 30.1895C250.305 31.4035 249.125 33.0382 248.001 35.0612L249.749 36.0325C250.813 34.118 251.883 32.659 252.947 31.623L251.553 30.1895ZM247.996 35.0701C246.966 36.9694 246.039 39.1144 245.211 41.5006L247.101 42.1557C247.899 39.8544 248.784 37.8118 249.754 36.0236L247.996 35.0701ZM245.211 41.5006C244.383 43.8896 243.73 46.3266 243.252 48.8112L245.216 49.1888C245.676 46.7984 246.304 44.4541 247.101 42.1557L245.211 41.5006ZM290.219 70.8438L290.932 70.1428L290.926 70.1366L290.219 70.8438ZM287.969 55.7969L286.99 55.5899L286.99 55.5909L287.969 55.7969ZM294.484 25V24H293.674L293.506 24.793L294.484 25ZM308.312 25L309.291 25.2066L309.546 24H308.312V25ZM301.422 57.625L302.394 57.8584L302.397 57.8451L302.4 57.8316L301.422 57.625ZM301.75 62.9688L302.631 62.4965L302.626 62.4865L302.621 62.4767L301.75 62.9688ZM308.734 61.8906L309.484 62.5522L309.493 62.5425L309.501 62.5326L308.734 61.8906ZM311.688 55.7969L312.643 56.0933L312.656 56.0491L312.666 56.0039L311.688 55.7969ZM318.203 25V24H317.393L317.225 24.793L318.203 25ZM332.031 25L333.01 25.2066L333.265 24H332.031V25ZM325.141 57.625L326.119 57.832L326.119 57.8316L325.141 57.625ZM336.391 58.2812L335.568 57.7128L335.565 57.7171L336.391 58.2812ZM339.672 52.2812L338.761 51.8693L338.756 51.8798L339.672 52.2812ZM342.297 45.2031L343.256 45.486L343.257 45.4812L342.297 45.2031ZM343.891 38.2656L342.906 38.0903L342.904 38.1012L343.891 38.2656ZM344.5 32.2188H345.5L343.586 31.8126L344.5 32.2188ZM343.141 32.9219L342.907 31.9495L342.874 31.9573L342.842 31.9674L343.141 32.9219ZM338.875 31.5625L339.737 31.0555L339.725 31.0347L339.711 31.0145L338.875 31.5625ZM339.484 24.5312L340.168 25.2608L340.174 25.2552L340.18 25.2495L339.484 24.5312ZM348.672 25.6562L347.814 26.1708L347.818 26.1762L348.672 25.6562ZM349.281 40.0469L348.292 39.8971L348.291 39.9069L349.281 40.0469ZM347.266 49.1875L348.222 49.481L348.223 49.4767L347.266 49.1875ZM338.406 66.0156L337.666 65.3432L337.661 65.349L338.406 66.0156ZM311.125 65.5L312.104 65.2951L311.611 62.9385L310.289 64.9512L311.125 65.5ZM304 72.1094L303.565 71.2087L303.553 71.2149L304 72.1094ZM297.484 72.5625C294.631 72.5625 292.488 71.7257 290.932 70.1428L289.506 71.5447C291.512 73.5868 294.213 74.5625 297.484 74.5625V72.5625ZM290.926 70.1366C289.173 68.3835 288.219 65.7543 288.219 62.0781H286.219C286.219 66.0894 287.265 69.304 289.512 71.5509L290.926 70.1366ZM288.219 62.0781C288.219 60.3536 288.457 58.3314 288.947 56.0029L286.99 55.5909C286.48 58.0124 286.219 60.1776 286.219 62.0781H288.219ZM288.947 56.0039L295.463 25.207L293.506 24.793L286.99 55.5899L288.947 56.0039ZM294.484 26H308.312V24H294.484V26ZM307.334 24.7934L300.443 57.4184L302.4 57.8316L309.291 25.2066L307.334 24.7934ZM300.449 57.3916C300.243 58.253 300.141 59.1441 300.141 60.0625H302.141C302.141 59.2934 302.226 58.5595 302.394 57.8584L300.449 57.3916ZM300.141 60.0625C300.141 61.3773 300.357 62.5371 300.879 63.4608L302.621 62.4767C302.33 61.9629 302.141 61.1852 302.141 60.0625H300.141ZM300.869 63.441C301.177 64.0175 301.604 64.4923 302.16 64.8169C302.715 65.1403 303.341 65.2812 304 65.2812V63.2812C303.628 63.2812 303.364 63.2034 303.168 63.0893C302.974 62.9765 302.791 62.795 302.631 62.4965L300.869 63.441ZM304 65.2812C306.098 65.2812 307.932 64.3109 309.484 62.5522L307.985 61.229C306.724 62.6578 305.402 63.2812 304 63.2812V65.2812ZM309.501 62.5326C310.748 61.0434 311.781 58.8692 312.643 56.0933L310.732 55.5005C309.906 58.162 308.971 60.0503 307.968 61.2487L309.501 62.5326ZM312.666 56.0039L319.181 25.207L317.225 24.793L310.709 55.5899L312.666 56.0039ZM318.203 26H332.031V24H318.203V26ZM331.053 24.7934L324.162 57.4184L326.119 57.8316L333.01 25.2066L331.053 24.7934ZM324.162 57.418C323.819 59.0425 323.625 60.2907 323.625 61.0938H325.625C325.625 60.5218 325.775 59.4575 326.119 57.832L324.162 57.418ZM323.625 61.0938C323.625 62.2718 323.942 63.3265 324.695 64.1241L326.149 62.7509C325.84 62.4235 325.625 61.9157 325.625 61.0938H323.625ZM324.695 64.1241C325.487 64.9628 326.632 65.2812 327.906 65.2812V63.2812C326.93 63.2812 326.419 63.0372 326.149 62.7509L324.695 64.1241ZM327.906 65.2812C329.659 65.2812 331.331 64.6563 332.907 63.4917L331.718 61.8833C330.419 62.8437 329.154 63.2812 327.906 63.2812V65.2812ZM332.907 63.4917C334.455 62.3475 335.888 60.789 337.216 58.8454L335.565 57.7171C334.331 59.5235 333.045 60.9025 331.718 61.8833L332.907 63.4917ZM337.213 58.8497C338.443 57.0695 339.567 55.0117 340.588 52.6827L338.756 51.8798C337.777 54.1133 336.713 56.0555 335.568 57.7128L337.213 58.8497ZM340.583 52.6932C341.634 50.3694 342.524 47.9669 343.256 45.486L341.338 44.9203C340.632 47.3144 339.773 49.6306 338.761 51.8693L340.583 52.6932ZM343.257 45.4812C343.955 43.0719 344.495 40.7214 344.877 38.43L342.904 38.1012C342.536 40.3098 342.014 42.5843 341.336 44.9251L343.257 45.4812ZM344.875 38.4409C345.289 36.1192 345.5 34.0429 345.5 32.2188H343.5C343.5 33.8946 343.305 35.8496 342.906 38.0903L344.875 38.4409ZM343.586 31.8126C343.625 31.7243 343.672 31.681 343.679 31.6746C343.685 31.6689 343.668 31.6858 343.607 31.7173C343.481 31.7825 343.259 31.8651 342.907 31.9495L343.374 33.8943C343.804 33.7911 344.199 33.6628 344.526 33.4937C344.832 33.3352 345.215 33.0711 345.414 32.6249L343.586 31.8126ZM342.842 31.9674C342.455 32.0883 341.996 32.1562 341.453 32.1562V34.1562C342.16 34.1562 342.826 34.0679 343.439 33.8764L342.842 31.9674ZM341.453 32.1562C340.765 32.1562 340.21 31.8591 339.737 31.0555L338.013 32.0695C338.79 33.3909 339.954 34.1562 341.453 34.1562V32.1562ZM339.711 31.0145C339.243 30.2989 338.984 29.404 338.984 28.2812H336.984C336.984 29.721 337.32 31.0136 338.039 32.1105L339.711 31.0145ZM338.984 28.2812C338.984 26.9527 339.399 25.982 340.168 25.2608L338.8 23.8017C337.57 24.9555 336.984 26.4848 336.984 28.2812H338.984ZM340.18 25.2495C340.928 24.5249 342.12 24.0781 343.938 24.0781V22.0781C341.817 22.0781 340.041 22.6001 338.789 23.813L340.18 25.2495ZM343.938 24.0781C345.737 24.0781 346.977 24.7746 347.814 26.1707L349.529 25.1418C348.305 23.1004 346.388 22.0781 343.938 22.0781V24.0781ZM347.818 26.1762C348.565 27.4036 348.984 29.1244 348.984 31.4219H350.984C350.984 28.9069 350.529 26.7839 349.526 25.1363L347.818 26.1762ZM348.984 31.4219C348.984 34.0201 348.755 36.8444 348.293 39.8971L350.27 40.1967C350.745 37.0618 350.984 34.1362 350.984 31.4219H348.984ZM348.291 39.9069C347.861 42.95 347.2 45.947 346.308 48.8983L348.223 49.4767C349.144 46.428 349.827 43.3313 350.271 40.1869L348.291 39.9069ZM346.31 48.894C344.151 55.9247 341.258 61.3893 337.666 65.3432L339.146 66.688C342.992 62.4544 346.005 56.7003 348.222 49.481L346.31 48.894ZM337.661 65.349C333.325 70.1963 328.32 72.5625 322.609 72.5625V74.5625C328.961 74.5625 334.487 71.8975 339.152 66.6823L337.661 65.349ZM322.609 72.5625C319.59 72.5625 317.242 71.9198 315.486 70.7209L314.358 72.3728C316.539 73.8615 319.316 74.5625 322.609 74.5625V72.5625ZM315.486 70.7209C313.763 69.545 312.622 67.7712 312.104 65.2951L310.146 65.7049C310.753 68.6038 312.143 70.8612 314.358 72.3728L315.486 70.7209ZM310.289 64.9512C308.335 67.9276 306.088 69.9911 303.565 71.2088L304.435 73.0099C307.35 71.6027 309.853 69.2599 311.961 66.0488L310.289 64.9512ZM303.553 71.2149C301.769 72.1069 299.753 72.5625 297.484 72.5625V74.5625C300.028 74.5625 302.356 74.0494 304.447 73.0038L303.553 71.2149ZM354.25 70L353.569 70.7319L353.57 70.7334L354.25 70ZM350.781 51.7656L351.767 51.9321L351.769 51.9196L350.781 51.7656ZM352.516 44.5469L351.565 44.2373L351.565 44.2381L352.516 44.5469ZM355.844 36.9062L354.975 36.4101L354.971 36.4187L355.844 36.9062ZM360.625 30.5312L359.913 29.8294L359.912 29.8302L360.625 30.5312ZM384.625 26.9688L385.355 26.2853L385.35 26.28L384.625 26.9688ZM384.906 41.0312L385.801 41.4785L385.803 41.4738L384.906 41.0312ZM379.984 47.3594L380.639 48.1155L380.645 48.1099L379.984 47.3594ZM372.859 51.7188L373.231 52.6473L373.24 52.6434L372.859 51.7188ZM364.609 53.5938L364.544 52.5959L363.695 52.6518L363.614 53.498L364.609 53.5938ZM366.156 63.9062L366.874 63.2098L366.869 63.2044L366.863 63.1991L366.156 63.9062ZM380.828 62.6875L380.288 61.8456L380.282 61.8499L380.828 62.6875ZM384.344 59.9219L385.03 60.6489L385.036 60.6439L385.041 60.6389L384.344 59.9219ZM388.281 55.7969V54.7969H387.838L387.54 55.1256L388.281 55.7969ZM391.562 55.7969L392.423 56.306L393.316 54.7969H391.562V55.7969ZM381.109 68.0312L381.715 68.8269L381.719 68.8236L381.109 68.0312ZM365.359 49L364.377 48.8112L364.132 50.0886L365.429 49.9975L365.359 49ZM375.062 43.8906L375.808 44.557L375.815 44.5491L375.062 43.8906ZM378.156 38.875L379.083 39.2518L379.085 39.2464L378.156 38.875ZM378.719 30.25L377.824 30.6972L377.837 30.722L377.851 30.7461L378.719 30.25ZM373.375 30.9062L372.687 30.1802L372.678 30.1895L373.375 30.9062ZM370 35.5469L369.126 35.0612L369.121 35.0701L370 35.5469ZM365.172 72.5625C360.615 72.5625 357.251 71.4176 354.93 69.2666L353.57 70.7334C356.374 73.3324 360.291 74.5625 365.172 74.5625V72.5625ZM354.931 69.2681C352.488 66.9934 351.172 63.4179 351.172 58.3281H349.172C349.172 63.7384 350.574 67.9441 353.569 70.7319L354.931 69.2681ZM351.172 58.3281C351.172 56.4265 351.368 54.2958 351.767 51.9321L349.795 51.5991C349.382 54.0479 349.172 56.2922 349.172 58.3281H351.172ZM351.769 51.9196C352.136 49.5679 352.701 47.2133 353.467 44.8557L351.565 44.2381C350.767 46.6929 350.177 49.1509 349.793 51.6116L351.769 51.9196ZM353.466 44.8565C354.322 42.2291 355.406 39.742 356.717 37.3938L354.971 36.4187C353.594 38.883 352.459 41.4897 351.565 44.2373L353.466 44.8565ZM356.712 37.4024C358.047 35.0655 359.59 33.0105 361.338 31.2323L359.912 29.8302C358.035 31.7395 356.39 33.9345 354.976 36.4101L356.712 37.4024ZM361.337 31.2331C365.331 27.1795 370.229 25.1562 376.094 25.1562V23.1562C369.709 23.1562 364.294 25.383 359.913 29.8294L361.337 31.2331ZM376.094 25.1562C379.865 25.1562 382.386 26.0634 383.9 27.6575L385.35 26.28C383.302 24.1241 380.135 23.1562 376.094 23.1562V25.1562ZM383.895 27.6522C385.039 28.8747 385.688 30.7183 385.688 33.3438H387.688C387.688 30.4067 386.961 28.0003 385.355 26.2853L383.895 27.6522ZM385.688 33.3438C385.688 35.9111 385.128 38.322 384.01 40.5887L385.803 41.4738C387.059 38.928 387.688 36.2139 387.688 33.3438H385.688ZM384.012 40.584C382.885 42.8381 381.326 44.8459 379.323 46.6089L380.645 48.1099C382.831 46.1854 384.553 43.9744 385.801 41.4785L384.012 40.584ZM379.33 46.6033C377.321 48.3426 375.039 49.7398 372.479 50.7941L373.24 52.6434C375.992 51.5102 378.461 50.0012 380.639 48.1154L379.33 46.6033ZM372.488 50.7903C369.929 51.8139 367.282 52.4154 364.544 52.5959L364.675 54.5916C367.624 54.3971 370.477 53.7486 373.231 52.6472L372.488 50.7903ZM363.614 53.498C363.457 55.1353 363.375 56.4531 363.375 57.4375H365.375C365.375 56.5469 365.45 55.3022 365.605 53.6895L363.614 53.498ZM363.375 57.4375C363.375 60.6225 363.967 63.131 365.449 64.6134L366.863 63.1991C365.971 62.3065 365.375 60.5025 365.375 57.4375H363.375ZM365.439 64.6027C366.747 65.951 368.798 66.5 371.312 66.5V64.5C369.014 64.5 367.628 63.9865 366.874 63.2098L365.439 64.6027ZM371.312 66.5C374.973 66.5 378.335 65.5073 381.374 63.5251L380.282 61.8499C377.571 63.6177 374.589 64.5 371.312 64.5V66.5ZM381.368 63.5294C382.642 62.7123 383.863 61.7513 385.03 60.6489L383.657 59.1949C382.574 60.2175 381.451 61.1002 380.288 61.8456L381.368 63.5294ZM385.041 60.6389C386.186 59.5256 387.514 58.1341 389.022 56.4682L387.54 55.1256C386.049 56.7721 384.752 58.1306 383.647 59.2049L385.041 60.6389ZM388.281 56.7969H391.562V54.7969H388.281V56.7969ZM390.702 55.2878C387.723 60.3245 384.318 64.299 380.499 67.2389L381.719 68.8236C385.776 65.701 389.34 61.5193 392.423 56.306L390.702 55.2878ZM380.504 67.2356C375.824 70.798 370.722 72.5625 365.172 72.5625V74.5625C371.184 74.5625 376.707 72.6395 381.715 68.8269L380.504 67.2356ZM365.429 49.9975C367.362 49.8619 369.233 49.3024 371.036 48.3341L370.089 46.5721C368.517 47.4164 366.919 47.8881 365.289 48.0025L365.429 49.9975ZM371.036 48.3341C372.829 47.3712 374.42 46.1101 375.808 44.557L374.317 43.2243C373.08 44.6087 371.671 45.7226 370.089 46.5721L371.036 48.3341ZM375.815 44.5491C377.201 42.9656 378.291 41.1986 379.083 39.2518L377.23 38.4982C376.522 40.2389 375.549 41.8156 374.31 43.2321L375.815 44.5491ZM379.085 39.2464C379.88 37.2583 380.281 35.2263 380.281 33.1562H378.281C378.281 34.9612 377.933 36.7417 377.228 38.5036L379.085 39.2464ZM380.281 33.1562C380.281 31.8074 380.089 30.6325 379.587 29.7539L377.851 30.7461C378.098 31.18 378.281 31.9426 378.281 33.1562H380.281ZM379.613 29.8028C379.361 29.2991 378.991 28.885 378.495 28.6056C378.007 28.3304 377.458 28.2188 376.891 28.2188V30.2188C377.199 30.2188 377.391 30.2789 377.513 30.3475C377.627 30.4119 377.732 30.5134 377.824 30.6972L379.613 29.8028ZM376.891 28.2188C375.389 28.2188 373.983 28.9525 372.687 30.1803L374.063 31.6322C375.142 30.61 376.08 30.2188 376.891 30.2188V28.2188ZM372.678 30.1895C371.43 31.4035 370.25 33.0382 369.126 35.0612L370.874 36.0325C371.938 34.118 373.008 32.659 374.072 31.623L372.678 30.1895ZM369.121 35.0701C368.091 36.9694 367.164 39.1144 366.336 41.5006L368.226 42.1557C369.024 39.8544 369.909 37.8118 370.879 36.0236L369.121 35.0701ZM366.336 41.5006C365.508 43.8896 364.855 46.3266 364.377 48.8112L366.341 49.1888C366.801 46.7984 367.429 44.4541 368.226 42.1557L366.336 41.5006ZM391.047 70.375L390.36 71.1018L390.365 71.1067L391.047 70.375ZM388.281 55.7969L389.244 56.0665L389.253 56.0363L389.259 56.0056L388.281 55.7969ZM398.547 7.70312L398.413 6.71216L397.716 6.80648L397.569 7.49438L398.547 7.70312ZM412.75 5.78125L413.728 5.98918L414.023 4.59982L412.616 4.79028L412.75 5.78125ZM408.156 27.3906L407.178 27.1827L406.695 29.4535L408.677 28.2443L408.156 27.3906ZM412.844 25.1406L413.125 26.1004L413.131 26.0985L412.844 25.1406ZM424.234 28.3281L425.027 27.718L425.023 27.7135L424.234 28.3281ZM426.812 47.6406L427.8 47.8007L427.8 47.7986L426.812 47.6406ZM425.078 54.5312L426.024 54.8556L426.024 54.8552L425.078 54.5312ZM416.922 67.6562L417.596 68.3947L417.599 68.3918L416.922 67.6562ZM412.141 60.3906L412.951 60.9765L412.959 60.9656L412.141 60.3906ZM416.172 51.2969L417.134 51.5695L417.137 51.5586L416.172 51.2969ZM416.453 34.375L415.553 34.8098L415.555 34.8154L416.453 34.375ZM409.609 31.8438L409.367 30.8735L409.356 30.8764L409.609 31.8438ZM406.891 33.25L406.126 32.6059L405.965 32.7962L405.913 33.0394L406.891 33.25ZM401.641 57.625L402.613 57.8584L402.616 57.847L402.618 57.8356L401.641 57.625ZM401.031 72.5625C396.807 72.5625 393.761 71.5369 391.728 69.6433L390.365 71.1067C392.895 73.4631 396.506 74.5625 401.031 74.5625V72.5625ZM391.734 69.6483C389.699 67.7251 388.625 64.9842 388.625 61.2812H386.625C386.625 65.3908 387.832 68.7124 390.36 71.1017L391.734 69.6483ZM388.625 61.2812C388.625 59.2537 388.837 57.5201 389.244 56.0665L387.318 55.5272C386.85 57.1986 386.625 59.1213 386.625 61.2812H388.625ZM389.259 56.0056L399.525 7.91187L397.569 7.49438L387.303 55.5881L389.259 56.0056ZM398.681 8.69409L412.884 6.77222L412.616 4.79028L398.413 6.71216L398.681 8.69409ZM411.772 5.57332L407.178 27.1827L409.134 27.5986L413.728 5.98918L411.772 5.57332ZM408.677 28.2443C410.486 27.1406 411.963 26.4403 413.125 26.1004L412.563 24.1809C411.162 24.591 409.514 25.3907 407.635 26.537L408.677 28.2443ZM413.131 26.0985C413.958 25.8504 414.921 25.7188 416.031 25.7188V23.7188C414.766 23.7188 413.604 23.8684 412.556 24.1828L413.131 26.0985ZM416.031 25.7188C419.378 25.7188 421.795 26.8245 423.446 28.9428L425.023 27.7135C422.924 25.0193 419.872 23.7188 416.031 23.7188V25.7188ZM423.442 28.9383C425.336 31.3972 426.375 35.3944 426.375 41.125H428.375C428.375 35.2306 427.321 30.6966 425.027 27.718L423.442 28.9383ZM426.375 41.125C426.375 43.0634 426.193 45.1818 425.825 47.4826L427.8 47.7986C428.182 45.412 428.375 43.1866 428.375 41.125H426.375ZM425.825 47.4806C425.46 49.7357 424.896 51.9778 424.132 54.2073L426.024 54.8552C426.823 52.5222 427.415 50.1705 427.8 47.8007L425.825 47.4806ZM424.132 54.2069C422.301 59.5488 419.663 63.772 416.244 66.9207L417.599 68.3918C421.306 64.978 424.106 60.4512 426.024 54.8556L424.132 54.2069ZM416.248 66.9178C412.134 70.6737 407.084 72.5625 401.031 72.5625V74.5625C407.541 74.5625 413.085 72.5138 417.596 68.3947L416.248 66.9178ZM406.422 65.2812C408.844 65.2812 411.011 63.6606 412.951 60.9765L411.33 59.8048C409.521 62.3082 407.875 63.2812 406.422 63.2812V65.2812ZM412.959 60.9656C414.668 58.5336 416.052 55.3896 417.134 51.5695L415.21 51.0243C414.167 54.7041 412.863 57.6227 411.322 59.8157L412.959 60.9656ZM417.137 51.5586C418.157 47.7977 418.672 44.1937 418.672 40.75H416.672C416.672 43.9938 416.187 47.4211 415.207 51.0351L417.137 51.5586ZM418.672 40.75C418.672 38.0616 418.252 35.7719 417.351 33.9346L415.555 34.8154C416.279 36.2906 416.672 38.2509 416.672 40.75H418.672ZM417.354 33.9403C416.863 32.923 416.225 32.0843 415.419 31.4702L414.206 33.0611C414.713 33.447 415.169 34.0145 415.553 34.8097L417.354 33.9403ZM415.419 31.4702C414.584 30.8343 413.62 30.5156 412.562 30.5156V32.5156C413.193 32.5156 413.729 32.697 414.206 33.0611L415.419 31.4702ZM412.562 30.5156C411.404 30.5156 410.336 30.6314 409.367 30.8736L409.852 32.8139C410.633 32.6186 411.534 32.5156 412.562 32.5156V30.5156ZM409.356 30.8764C407.976 31.2378 406.826 31.7745 406.126 32.6059L407.656 33.8941C407.955 33.538 408.618 33.1372 409.863 32.8111L409.356 30.8764ZM405.913 33.0394L400.663 57.4144L402.618 57.8356L407.868 33.4606L405.913 33.0394ZM400.668 57.3916C400.465 58.2368 400.359 59.0501 400.359 59.8281H402.359C402.359 59.2311 402.441 58.5757 402.613 57.8584L400.668 57.3916ZM400.359 59.8281C400.359 61.5023 400.841 62.9306 401.965 63.9188C403.063 64.8855 404.61 65.2812 406.422 65.2812V63.2812C404.859 63.2812 403.874 62.9348 403.285 62.4171C402.721 61.9209 402.359 61.1227 402.359 59.8281H400.359ZM435.719 72.5312L435.345 73.4586L435.352 73.4614L435.359 73.4642L435.719 72.5312ZM431.219 69.5781L430.502 70.2755L430.503 70.2762L431.219 69.5781ZM428.688 65.7344L427.756 66.0988L427.759 66.1058L428.688 65.7344ZM429.438 55.6094L430.284 56.1422L430.285 56.1394L429.438 55.6094ZM432.953 52.375L433.376 53.2812L433.667 53.1455L433.824 52.8658L432.953 52.375ZM444.766 23.9219L444.635 22.9305L444.001 23.0141L443.811 23.6239L444.766 23.9219ZM458.969 22.0469L459.968 22.0008L459.917 20.913L458.838 21.0555L458.969 22.0469ZM460 40.75L460.998 40.6802L460.997 40.6782L460 40.75ZM460.797 50.5938L461.794 50.5171L461.793 50.5034L461.791 50.4898L460.797 50.5938ZM460.703 60.625L459.747 60.3309L458.991 62.7896L461.209 61.4874L460.703 60.625ZM467.594 55.7969V54.7969H467.213L466.929 55.0502L467.594 55.7969ZM471.625 55.7969L472.384 56.4484L473.802 54.7969H471.625V55.7969ZM464.547 62.6406L463.931 61.8529L463.926 61.8568L464.547 62.6406ZM456.953 67.7969L456.454 66.9305L456.329 67.0025L456.229 67.1069L456.953 67.7969ZM449.781 72.25L449.462 71.3023L449.451 71.3061L449.781 72.25ZM444.578 64L443.905 63.2601L443.904 63.2615L444.578 64ZM446.922 52.2344L447.919 52.154L447.919 52.1527L446.922 52.2344ZM446.688 49.375L447.684 49.2933L447.683 49.2775L447.681 49.2618L446.688 49.375ZM445.844 40.7969L444.847 40.8763L444.847 40.8831L445.844 40.7969ZM445.328 34.3281L446.325 34.2487L444.373 34.0304L445.328 34.3281ZM442.094 43L443.009 43.4024L443.011 43.3987L442.094 43ZM437.547 52.4688L436.657 52.0119L436.214 52.8744L437.063 53.3438L437.547 52.4688ZM438.625 59.0312L437.855 58.3937L437.849 58.4007L438.625 59.0312ZM433.938 60.2969L433.518 61.2048L433.559 61.2236L433.601 61.2386L433.938 60.2969ZM432.953 59.2656L433.848 58.8184L431.953 59.2656H432.953ZM434.312 64.375L433.542 65.013L433.547 65.0185L433.552 65.0239L434.312 64.375ZM441.859 72.5625C439.645 72.5625 437.724 72.2332 436.079 71.5983L435.359 73.4642C437.276 74.2043 439.449 74.5625 441.859 74.5625V72.5625ZM436.093 71.6039C434.427 70.9318 433.047 70.0212 431.935 68.88L430.503 70.2762C431.828 71.6351 433.448 72.6932 435.345 73.4586L436.093 71.6039ZM431.935 68.8808C430.896 67.8121 430.127 66.64 429.616 65.363L427.759 66.1058C428.373 67.6412 429.292 69.0317 430.502 70.2755L431.935 68.8808ZM429.619 65.37C429.101 64.0476 428.844 62.6868 428.844 61.2812H426.844C426.844 62.9382 427.149 64.5461 427.756 66.0988L429.619 65.37ZM428.844 61.2812C428.844 59.3662 429.327 57.662 430.284 56.1422L428.591 55.0766C427.423 56.9318 426.844 59.0088 426.844 61.2812H428.844ZM430.285 56.1394C431.135 54.7796 432.168 53.8447 433.376 53.2812L432.53 51.4688C430.925 52.2178 429.615 53.4391 428.59 55.0794L430.285 56.1394ZM433.824 52.8658C436.345 48.3922 438.535 43.8534 440.396 39.2497L438.542 38.5003C436.715 43.0216 434.561 47.4828 432.082 51.8842L433.824 52.8658ZM440.396 39.2497C442.251 34.6586 444.026 29.6482 445.72 24.2198L443.811 23.6239C442.13 29.008 440.374 33.9664 438.542 38.5003L440.396 39.2497ZM444.897 24.9133L459.1 23.0383L458.838 21.0555L444.635 22.9305L444.897 24.9133ZM457.97 22.093C458.345 30.2206 458.689 36.4651 459.003 40.8218L460.997 40.6782C460.686 36.3474 460.343 30.1232 459.968 22.0008L457.97 22.093ZM459.002 40.8198C459.315 45.2902 459.582 48.5858 459.802 50.6977L461.791 50.4898C461.575 48.4142 461.31 45.1473 460.998 40.6802L459.002 40.8198ZM459.8 50.6704C459.986 53.0906 460.078 55.1889 460.078 56.9688H462.078C462.078 55.1236 461.983 52.9719 461.794 50.5171L459.8 50.6704ZM460.078 56.9688C460.078 58.5674 459.952 59.6648 459.747 60.3309L461.659 60.9191C461.954 59.9602 462.078 58.6201 462.078 56.9688H460.078ZM461.209 61.4874C464.118 59.78 466.475 58.1331 468.259 56.5435L466.929 55.0502C465.275 56.5231 463.038 58.095 460.197 59.7626L461.209 61.4874ZM467.594 56.7969H471.625V54.7969H467.594V56.7969ZM470.866 55.1453C468.623 57.758 466.31 59.9921 463.931 61.8529L465.163 63.4283C467.659 61.4766 470.065 59.1482 472.384 56.4484L470.866 55.1453ZM463.926 61.8568C461.558 63.7326 459.067 65.4238 456.454 66.9305L457.453 68.6632C460.151 67.1075 462.723 65.3611 465.168 63.4245L463.926 61.8568ZM456.229 67.1069C454.446 68.9783 452.199 70.3802 449.462 71.3024L450.101 73.1976C453.114 72.1823 455.648 70.6155 457.677 68.4868L456.229 67.1069ZM449.451 71.3061C447.062 72.1421 444.534 72.5625 441.859 72.5625V74.5625C444.747 74.5625 447.5 74.1079 450.112 73.1939L449.451 71.3061ZM438.812 66.9688C441.407 66.9688 443.59 66.2566 445.252 64.7385L443.904 63.2615C442.692 64.3684 441.031 64.9688 438.812 64.9688V66.9688ZM445.251 64.7399C447.239 62.9325 448.156 60.3123 448.156 57.0625H446.156C446.156 59.9377 445.355 61.9425 443.905 63.2601L445.251 64.7399ZM448.156 57.0625C448.156 55.7445 448.076 54.1061 447.919 52.154L445.925 52.3148C446.08 54.2376 446.156 55.818 446.156 57.0625H448.156ZM447.919 52.1527L447.684 49.2933L445.691 49.4567L445.925 52.3161L447.919 52.1527ZM447.681 49.2618C447.401 46.8043 447.121 43.9543 446.84 40.7107L444.847 40.8831C445.129 44.1395 445.411 47.0082 445.694 49.4882L447.681 49.2618ZM446.841 40.7174L446.325 34.2487L444.331 34.4076L444.847 40.8763L446.841 40.7174ZM444.373 34.0304C443.478 36.9014 442.413 39.7583 441.177 42.6013L443.011 43.3987C444.275 40.4917 445.366 37.5674 446.283 34.6258L444.373 34.0304ZM441.178 42.5976C439.938 45.419 438.432 48.5568 436.657 52.0119L438.436 52.9256C440.225 49.4432 441.749 46.2685 443.009 43.4024L441.178 42.5976ZM437.063 53.3438C438.287 54.0208 438.75 54.8313 438.75 55.7969H440.75C440.75 53.9499 439.745 52.5417 438.031 51.5937L437.063 53.3438ZM438.75 55.7969C438.75 56.8298 438.446 57.6785 437.855 58.3937L439.395 59.6688C440.304 58.5715 440.75 57.2639 440.75 55.7969H438.75ZM437.849 58.4007C437.22 59.1753 436.47 59.5312 435.531 59.5312V61.5312C437.093 61.5312 438.405 60.8872 439.401 59.6618L437.849 58.4007ZM435.531 59.5312C434.984 59.5312 434.573 59.4621 434.274 59.3551L433.601 61.2386C434.177 61.4442 434.829 61.5312 435.531 61.5312V59.5312ZM434.357 59.3889C434.204 59.3183 434.022 59.1671 433.848 58.8184L432.059 59.7128C432.384 60.3641 432.859 60.9004 433.518 61.2048L434.357 59.3889ZM431.953 59.2656C431.953 61.6749 432.419 63.6574 433.542 65.013L435.083 63.737C434.393 62.9051 433.953 61.4813 433.953 59.2656H431.953ZM433.552 65.0239C434.727 66.4015 436.574 66.9688 438.812 66.9688V64.9688C436.863 64.9688 435.711 64.4735 435.073 63.7261L433.552 65.0239ZM480.672 19.2344L480.274 20.1519L480.287 20.1576L480.3 20.1629L480.672 19.2344ZM478.234 17.5938L478.941 16.8866L478.933 16.8784L478.925 16.8704L478.234 17.5938ZM476.594 15.2031L475.665 15.5745L475.671 15.5877L475.676 15.6007L476.594 15.2031ZM476.594 9.29688L475.676 8.89927L475.671 8.9123L475.665 8.92548L476.594 9.29688ZM480.672 5.17188L481.043 6.10035L481.056 6.09508L481.069 6.08943L480.672 5.17188ZM486.578 5.17188L486.181 6.08943L486.194 6.09508L486.207 6.10035L486.578 5.17188ZM490.703 9.29688L489.775 9.66827L489.78 9.68145L489.786 9.69448L490.703 9.29688ZM490.703 15.2031L489.786 14.8055L489.78 14.8185L489.775 14.8317L490.703 15.2031ZM489.062 17.5938L488.388 16.8553L488.38 16.8631L488.371 16.8711L489.062 17.5938ZM486.578 19.2344L486.95 20.1629L486.963 20.1576L486.976 20.1519L486.578 19.2344ZM469.844 70.8438L470.557 70.1428L470.551 70.1366L469.844 70.8438ZM467.594 55.7969L466.615 55.5899L466.615 55.5909L467.594 55.7969ZM474.109 25V24H473.299L473.131 24.793L474.109 25ZM487.938 25L488.916 25.2066L489.171 24H487.938V25ZM481.047 57.625L482.003 57.9191L482.016 57.8759L482.025 57.8316L481.047 57.625ZM481.562 63.4844L480.896 64.2296L480.905 64.2381L480.915 64.2463L481.562 63.4844ZM487.281 63.6719L487.702 64.5789L487.709 64.5757L487.716 64.5724L487.281 63.6719ZM493.234 55.7969V54.7969H492.496L492.279 55.502L493.234 55.7969ZM497.266 55.7969L498.208 56.1313L498.682 54.7969H497.266V55.7969ZM490.797 67.375L491.528 68.0573L491.534 68.0511L491.539 68.0449L490.797 67.375ZM483.625 18.7969C482.718 18.7969 481.86 18.6326 481.043 18.3059L480.3 20.1629C481.359 20.5861 482.469 20.7969 483.625 20.7969V18.7969ZM481.069 18.3168C480.242 17.958 479.535 17.4807 478.941 16.8866L477.527 18.3009C478.308 19.0818 479.227 19.6982 480.274 20.1519L481.069 18.3168ZM478.925 16.8704C478.341 16.3132 477.868 15.6297 477.511 14.8055L475.676 15.6007C476.132 16.6516 476.753 17.5618 477.544 18.3171L478.925 16.8704ZM477.522 14.8317C477.195 14.0149 477.031 13.1568 477.031 12.25H475.031C475.031 13.4057 475.242 14.5163 475.665 15.5745L477.522 14.8317ZM477.031 12.25C477.031 11.3432 477.195 10.4851 477.522 9.66827L475.665 8.92548C475.242 9.98365 475.031 11.0943 475.031 12.25H477.031ZM477.511 9.69448C477.872 8.86261 478.354 8.13457 478.957 7.50372L477.512 6.12128C476.74 6.92793 476.128 7.85614 475.676 8.89927L477.511 9.69448ZM478.957 7.50372C479.544 6.88985 480.236 6.42311 481.043 6.10035L480.3 4.2434C479.232 4.67064 478.3 5.29765 477.512 6.12128L478.957 7.50372ZM481.069 6.08943C481.88 5.73808 482.729 5.5625 483.625 5.5625V3.5625C482.458 3.5625 481.338 3.79317 480.274 4.25432L481.069 6.08943ZM483.625 5.5625C484.521 5.5625 485.37 5.73808 486.181 6.08943L486.976 4.25432C485.912 3.79317 484.792 3.5625 483.625 3.5625V5.5625ZM486.207 6.10035C487.018 6.42471 487.732 6.89596 488.355 7.51961L489.77 6.10539C488.956 5.29154 488.014 4.66904 486.95 4.2434L486.207 6.10035ZM488.355 7.51961C488.979 8.14325 489.45 8.85737 489.775 9.66827L491.632 8.92548C491.206 7.86138 490.583 6.91925 489.77 6.10539L488.355 7.51961ZM489.786 9.69448C490.137 10.5053 490.312 11.3542 490.312 12.25H492.312C492.312 11.0833 492.082 9.96347 491.621 8.89927L489.786 9.69448ZM490.312 12.25C490.312 13.1458 490.137 13.9947 489.786 14.8055L491.621 15.6007C492.082 14.5365 492.312 13.4167 492.312 12.25H490.312ZM489.775 14.8317C489.453 15.6347 488.991 16.3045 488.388 16.8553L489.737 18.3322C490.571 17.5705 491.203 16.6466 491.632 15.5745L489.775 14.8317ZM488.371 16.8711C487.74 17.4745 487.012 17.9563 486.181 18.3168L486.976 20.1519C488.019 19.6999 488.947 19.088 489.754 18.3164L488.371 16.8711ZM486.207 18.3059C485.39 18.6326 484.532 18.7969 483.625 18.7969V20.7969C484.781 20.7969 485.891 20.5861 486.95 20.1629L486.207 18.3059ZM477.109 72.5625C474.256 72.5625 472.113 71.7257 470.557 70.1428L469.131 71.5447C471.137 73.5868 473.838 74.5625 477.109 74.5625V72.5625ZM470.551 70.1366C468.798 68.3835 467.844 65.7543 467.844 62.0781H465.844C465.844 66.0894 466.89 69.304 469.137 71.5509L470.551 70.1366ZM467.844 62.0781C467.844 60.3536 468.082 58.3314 468.572 56.0029L466.615 55.5909C466.105 58.0124 465.844 60.1776 465.844 62.0781H467.844ZM468.572 56.0039L475.088 25.207L473.131 24.793L466.615 55.5899L468.572 56.0039ZM474.109 26H487.938V24H474.109V26ZM486.959 24.7934L480.068 57.4184L482.025 57.8316L488.916 25.2066L486.959 24.7934ZM480.091 57.3309C479.802 58.2721 479.672 59.4113 479.672 60.7188H481.672C481.672 59.5262 481.792 58.6029 482.003 57.9191L480.091 57.3309ZM479.672 60.7188C479.672 62.1377 479.986 63.4157 480.896 64.2296L482.229 62.7391C481.951 62.4905 481.672 61.9248 481.672 60.7188H479.672ZM480.915 64.2463C481.808 65.0056 483.098 65.2812 484.562 65.2812V63.2812C483.277 63.2812 482.567 63.0256 482.21 62.7224L480.915 64.2463ZM484.562 65.2812C485.65 65.2812 486.699 65.0446 487.702 64.5789L486.86 62.7649C486.113 63.1117 485.35 63.2812 484.562 63.2812V65.2812ZM487.716 64.5724C488.729 64.0836 489.648 63.4227 490.473 62.5977L489.059 61.1835C488.384 61.8585 487.646 62.3852 486.847 62.7713L487.716 64.5724ZM490.473 62.5977C492.142 60.9284 493.371 58.7443 494.19 56.0918L492.279 55.502C491.535 57.912 490.452 59.7904 489.059 61.1835L490.473 62.5977ZM493.234 56.7969H497.266V54.7969H493.234V56.7969ZM496.323 55.4625C494.635 60.2207 492.536 63.954 490.054 66.7051L491.539 68.0449C494.245 65.046 496.459 61.0605 498.208 56.1313L496.323 55.4625ZM490.066 66.6927C487.974 68.9341 485.632 70.529 483.04 71.5012L483.742 73.3738C486.649 72.2835 489.245 70.5034 491.528 68.0573L490.066 66.6927ZM483.04 71.5012C481.155 72.208 479.18 72.5625 477.109 72.5625V74.5625C479.414 74.5625 481.627 74.167 483.742 73.3738L483.04 71.5012ZM495.531 70.8438L496.245 70.1428L496.238 70.1366L495.531 70.8438ZM493.281 55.7969L492.303 55.5877L492.303 55.5909L493.281 55.7969ZM499.047 28.8438L500.025 29.0529L500.283 27.8438H499.047V28.8438ZM495.859 28.8438L494.88 28.6407L494.631 29.8438H495.859V28.8438ZM496.656 25V24H495.842L495.677 24.797L496.656 25ZM499.797 25V26H500.602L500.774 25.214L499.797 25ZM502.703 11.7344L502.569 10.7434L501.876 10.8372L501.726 11.5204L502.703 11.7344ZM516.906 9.8125L517.884 10.0237L518.185 8.63039L516.772 8.82153L516.906 9.8125ZM513.625 25L512.648 24.7888L512.386 26H513.625V25ZM519.391 25L520.372 25.1915L520.605 24H519.391V25ZM518.641 28.8438V29.8438H519.464L519.622 29.0353L518.641 28.8438ZM512.875 28.8438V27.8438H512.066L511.897 28.6351L512.875 28.8438ZM506.734 57.625L507.69 57.9191L507.703 57.8769L507.712 57.8337L506.734 57.625ZM507.25 63.4844L506.583 64.2296L506.593 64.2381L506.602 64.2463L507.25 63.4844ZM512.969 63.6719L513.39 64.5789L513.397 64.5757L513.403 64.5724L512.969 63.6719ZM518.922 55.7969V54.7969H518.184L517.966 55.502L518.922 55.7969ZM522.953 55.7969L523.896 56.1313L524.369 54.7969H522.953V55.7969ZM516.484 67.375L517.215 68.0573L517.221 68.0511L517.227 68.0449L516.484 67.375ZM502.797 72.5625C499.944 72.5625 497.8 71.7257 496.244 70.1428L494.818 71.5447C496.825 73.5868 499.525 74.5625 502.797 74.5625V72.5625ZM496.238 70.1366C494.485 68.3835 493.531 65.7543 493.531 62.0781H491.531C491.531 66.0894 492.577 69.304 494.824 71.5509L496.238 70.1366ZM493.531 62.0781C493.531 60.3536 493.77 58.3314 494.26 56.0029L492.303 55.5909C491.793 58.0124 491.531 60.1776 491.531 62.0781H493.531ZM494.259 56.0061L500.025 29.0529L498.069 28.6346L492.303 55.5877L494.259 56.0061ZM499.047 27.8438H495.859V29.8438H499.047V27.8438ZM496.839 29.0468L497.635 25.203L495.677 24.797L494.88 28.6407L496.839 29.0468ZM496.656 26H499.797V24H496.656V26ZM500.774 25.214L503.68 11.9484L501.726 11.5204L498.82 24.786L500.774 25.214ZM502.837 12.7253L517.04 10.8035L516.772 8.82153L502.569 10.7434L502.837 12.7253ZM515.929 9.60132L512.648 24.7888L514.602 25.2112L517.884 10.0237L515.929 9.60132ZM513.625 26H519.391V24H513.625V26ZM518.409 24.8085L517.659 28.6522L519.622 29.0353L520.372 25.1915L518.409 24.8085ZM518.641 27.8438H512.875V29.8438H518.641V27.8438ZM511.897 28.6351L505.756 57.4163L507.712 57.8337L513.853 29.0524L511.897 28.6351ZM505.779 57.3309C505.489 58.2721 505.359 59.4113 505.359 60.7188H507.359C507.359 59.5262 507.48 58.6029 507.69 57.9191L505.779 57.3309ZM505.359 60.7188C505.359 62.1377 505.674 63.4157 506.583 64.2296L507.917 62.7391C507.639 62.4905 507.359 61.9248 507.359 60.7188H505.359ZM506.602 64.2463C507.496 65.0056 508.786 65.2812 510.25 65.2812V63.2812C508.964 63.2812 508.254 63.0256 507.898 62.7224L506.602 64.2463ZM510.25 65.2812C511.337 65.2812 512.387 65.0446 513.39 64.5789L512.548 62.7649C511.801 63.1117 511.038 63.2812 510.25 63.2812V65.2812ZM513.403 64.5724C514.416 64.0836 515.335 63.4227 516.16 62.5977L514.746 61.1835C514.071 61.8585 513.334 62.3852 512.534 62.7713L513.403 64.5724ZM516.16 62.5977C517.83 60.9284 519.059 58.7443 519.877 56.0918L517.966 55.502C517.223 57.912 516.139 59.7904 514.746 61.1835L516.16 62.5977ZM518.922 56.7969H522.953V54.7969H518.922V56.7969ZM522.011 55.4625C520.322 60.2207 518.224 63.954 515.742 66.7051L517.227 68.0449C519.932 65.046 522.146 61.0605 523.896 56.1313L522.011 55.4625ZM515.753 66.6927C513.661 68.9341 511.32 70.529 508.727 71.5012L509.429 73.3738C512.337 72.2835 514.932 70.5034 517.215 68.0573L515.753 66.6927ZM508.727 71.5012C506.842 72.208 504.867 72.5625 502.797 72.5625V74.5625C505.101 74.5625 507.314 74.167 509.429 73.3738L508.727 71.5012ZM521.781 70L521.1 70.7319L521.101 70.7334L521.781 70ZM518.312 51.7656L519.299 51.9321L519.301 51.9196L518.312 51.7656ZM520.047 44.5469L519.096 44.2373L519.096 44.2381L520.047 44.5469ZM523.375 36.9062L522.507 36.4101L522.502 36.4187L523.375 36.9062ZM528.156 30.5312L527.444 29.8294L527.443 29.8302L528.156 30.5312ZM552.156 26.9688L552.886 26.2853L552.881 26.28L552.156 26.9688ZM552.438 41.0312L553.332 41.4785L553.334 41.4738L552.438 41.0312ZM547.516 47.3594L548.17 48.1155L548.177 48.1099L547.516 47.3594ZM540.391 51.7188L540.762 52.6473L540.771 52.6434L540.391 51.7188ZM532.141 53.5938L532.075 52.5959L531.227 52.6518L531.145 53.498L532.141 53.5938ZM533.688 63.9062L534.405 63.2098L534.4 63.2044L534.395 63.1991L533.688 63.9062ZM548.359 62.6875L547.82 61.8456L547.813 61.8499L548.359 62.6875ZM551.875 59.9219L552.562 60.6489L552.567 60.6439L552.572 60.6389L551.875 59.9219ZM555.812 55.7969V54.7969H555.369L555.071 55.1256L555.812 55.7969ZM559.094 55.7969L559.954 56.306L560.847 54.7969H559.094V55.7969ZM548.641 68.0312L549.246 68.8269L549.251 68.8236L548.641 68.0312ZM532.891 49L531.909 48.8112L531.663 50.0886L532.961 49.9975L532.891 49ZM542.594 43.8906L543.339 44.557L543.346 44.5491L542.594 43.8906ZM545.688 38.875L546.614 39.2518L546.616 39.2464L545.688 38.875ZM546.25 30.25L545.356 30.6972L545.368 30.722L545.382 30.7461L546.25 30.25ZM540.906 30.9062L540.218 30.1802L540.209 30.1895L540.906 30.9062ZM537.531 35.5469L536.657 35.0612L536.652 35.0701L537.531 35.5469ZM532.703 72.5625C528.147 72.5625 524.782 71.4176 522.461 69.2666L521.101 70.7334C523.906 73.3324 527.822 74.5625 532.703 74.5625V72.5625ZM522.463 69.2681C520.019 66.9934 518.703 63.4179 518.703 58.3281H516.703C516.703 63.7384 518.106 67.9441 521.1 70.7319L522.463 69.2681ZM518.703 58.3281C518.703 56.4265 518.899 54.2958 519.299 51.9321L517.326 51.5991C516.913 54.0479 516.703 56.2922 516.703 58.3281H518.703ZM519.301 51.9196C519.667 49.5679 520.233 47.2133 520.998 44.8557L519.096 44.2381C518.299 46.6929 517.708 49.1509 517.324 51.6116L519.301 51.9196ZM520.998 44.8565C521.853 42.2291 522.937 39.742 524.248 37.3938L522.502 36.4187C521.126 38.883 519.991 41.4897 519.096 44.2373L520.998 44.8565ZM524.243 37.4024C525.579 35.0655 527.121 33.0105 528.869 31.2323L527.443 29.8302C525.566 31.7395 523.921 33.9345 522.507 36.4101L524.243 37.4024ZM528.869 31.2331C532.863 27.1795 537.76 25.1562 543.625 25.1562V23.1562C537.24 23.1562 531.825 25.383 527.444 29.8294L528.869 31.2331ZM543.625 25.1562C547.396 25.1562 549.917 26.0634 551.431 27.6575L552.881 26.28C550.833 24.1241 547.666 23.1562 543.625 23.1562V25.1562ZM551.426 27.6522C552.571 28.8747 553.219 30.7183 553.219 33.3438H555.219C555.219 30.4067 554.492 28.0003 552.886 26.2853L551.426 27.6522ZM553.219 33.3438C553.219 35.9111 552.659 38.322 551.541 40.5887L553.334 41.4738C554.591 38.928 555.219 36.2139 555.219 33.3438H553.219ZM551.543 40.584C550.416 42.8381 548.857 44.8459 546.855 46.6089L548.177 48.1099C550.362 46.1854 552.084 43.9744 553.332 41.4785L551.543 40.584ZM546.861 46.6033C544.852 48.3426 542.57 49.7398 540.01 50.7941L540.771 52.6434C543.524 51.5102 545.992 50.0012 548.17 48.1154L546.861 46.6033ZM540.019 50.7903C537.46 51.8139 534.813 52.4154 532.075 52.5959L532.206 54.5916C535.155 54.3971 538.009 53.7486 540.762 52.6472L540.019 50.7903ZM531.145 53.498C530.988 55.1353 530.906 56.4531 530.906 57.4375H532.906C532.906 56.5469 532.981 55.3022 533.136 53.6895L531.145 53.498ZM530.906 57.4375C530.906 60.6225 531.498 63.131 532.98 64.6134L534.395 63.1991C533.502 62.3065 532.906 60.5025 532.906 57.4375H530.906ZM532.97 64.6027C534.279 65.951 536.329 66.5 538.844 66.5V64.5C536.546 64.5 535.159 63.9865 534.405 63.2098L532.97 64.6027ZM538.844 66.5C542.504 66.5 545.866 65.5073 548.906 63.5251L547.813 61.8499C545.102 63.6177 542.121 64.5 538.844 64.5V66.5ZM548.899 63.5294C550.174 62.7123 551.394 61.7513 552.562 60.6489L551.188 59.1949C550.106 60.2175 548.983 61.1002 547.82 61.8456L548.899 63.5294ZM552.572 60.6389C553.717 59.5256 555.045 58.1341 556.554 56.4682L555.071 55.1256C553.58 56.7721 552.283 58.1306 551.178 59.2049L552.572 60.6389ZM555.812 56.7969H559.094V54.7969H555.812V56.7969ZM558.233 55.2878C555.254 60.3245 551.849 64.299 548.031 67.2389L549.251 68.8236C553.307 65.701 556.871 61.5193 559.954 56.306L558.233 55.2878ZM548.035 67.2356C543.355 70.798 538.253 72.5625 532.703 72.5625V74.5625C538.715 74.5625 544.238 72.6395 549.246 68.8269L548.035 67.2356ZM532.961 49.9975C534.893 49.8619 536.764 49.3024 538.567 48.3341L537.621 46.5721C536.049 47.4164 534.451 47.8881 532.821 48.0025L532.961 49.9975ZM538.567 48.3341C540.36 47.3712 541.951 46.1101 543.339 44.557L541.848 43.2243C540.611 44.6087 539.203 45.7226 537.621 46.5721L538.567 48.3341ZM543.346 44.5491C544.732 42.9656 545.822 41.1986 546.614 39.2518L544.761 38.4982C544.053 40.2389 543.081 41.8156 541.841 43.2321L543.346 44.5491ZM546.616 39.2464C547.411 37.2583 547.812 35.2263 547.812 33.1562H545.812C545.812 34.9612 545.464 36.7417 544.759 38.5036L546.616 39.2464ZM547.812 33.1562C547.812 31.8074 547.62 30.6325 547.118 29.7539L545.382 30.7461C545.63 31.18 545.812 31.9426 545.812 33.1562H547.812ZM547.144 29.8028C546.893 29.2991 546.522 28.885 546.026 28.6056C545.539 28.3304 544.989 28.2188 544.422 28.2188V30.2188C544.73 30.2188 544.922 30.2789 545.044 30.3475C545.158 30.4119 545.264 30.5134 545.356 30.6972L547.144 29.8028ZM544.422 28.2188C542.92 28.2188 541.515 28.9525 540.219 30.1803L541.594 31.6322C542.673 30.61 543.611 30.2188 544.422 30.2188V28.2188ZM540.209 30.1895C538.961 31.4035 537.781 33.0382 536.657 35.0612L538.405 36.0325C539.469 34.118 540.539 32.659 541.604 31.623L540.209 30.1895ZM536.652 35.0701C535.622 36.9694 534.695 39.1144 533.868 41.5006L535.757 42.1557C536.555 39.8544 537.44 37.8118 538.41 36.0236L536.652 35.0701ZM533.868 41.5006C533.039 43.8896 532.386 46.3266 531.909 48.8112L533.873 49.1888C534.332 46.7984 534.961 44.4541 535.757 42.1557L533.868 41.5006ZM560.594 72.5312L560.22 73.4586L560.227 73.4614L560.234 73.4642L560.594 72.5312ZM556.094 69.5781L555.377 70.2755L555.378 70.2762L556.094 69.5781ZM553.562 65.7344L552.631 66.0988L552.634 66.1058L553.562 65.7344ZM554.312 55.6094L555.159 56.1422L555.16 56.1394L554.312 55.6094ZM557.828 52.375L558.251 53.2812L558.542 53.1455L558.699 52.8658L557.828 52.375ZM569.641 23.9219L569.51 22.9305L568.876 23.0141L568.686 23.6239L569.641 23.9219ZM583.844 22.0469L584.843 22.0008L584.792 20.913L583.713 21.0555L583.844 22.0469ZM584.875 40.75L585.873 40.6802L585.872 40.6782L584.875 40.75ZM585.672 50.5938L586.669 50.5171L586.668 50.5034L586.666 50.4898L585.672 50.5938ZM585.578 60.625L584.622 60.3309L583.866 62.7896L586.084 61.4874L585.578 60.625ZM592.469 55.7969V54.7969H592.088L591.804 55.0502L592.469 55.7969ZM596.5 55.7969L597.259 56.4484L598.677 54.7969H596.5V55.7969ZM589.422 62.6406L588.806 61.8529L588.801 61.8568L589.422 62.6406ZM581.828 67.7969L581.329 66.9305L581.204 67.0025L581.104 67.1069L581.828 67.7969ZM574.656 72.25L574.337 71.3023L574.326 71.3061L574.656 72.25ZM569.453 64L568.78 63.2601L568.779 63.2615L569.453 64ZM571.797 52.2344L572.794 52.154L572.794 52.1527L571.797 52.2344ZM571.562 49.375L572.559 49.2933L572.558 49.2775L572.556 49.2618L571.562 49.375ZM570.719 40.7969L569.722 40.8763L569.722 40.8831L570.719 40.7969ZM570.203 34.3281L571.2 34.2487L569.248 34.0304L570.203 34.3281ZM566.969 43L567.884 43.4024L567.886 43.3987L566.969 43ZM562.422 52.4688L561.532 52.0119L561.089 52.8744L561.938 53.3438L562.422 52.4688ZM563.5 59.0312L562.73 58.3937L562.724 58.4007L563.5 59.0312ZM558.812 60.2969L558.393 61.2048L558.434 61.2236L558.476 61.2386L558.812 60.2969ZM557.828 59.2656L558.723 58.8184L556.828 59.2656H557.828ZM559.188 64.375L558.417 65.013L558.422 65.0185L558.427 65.0239L559.188 64.375ZM566.734 72.5625C564.52 72.5625 562.599 72.2332 560.954 71.5983L560.234 73.4642C562.151 74.2043 564.324 74.5625 566.734 74.5625V72.5625ZM560.968 71.6039C559.302 70.9318 557.922 70.0212 556.81 68.88L555.378 70.2762C556.703 71.6351 558.323 72.6932 560.22 73.4586L560.968 71.6039ZM556.81 68.8808C555.771 67.8121 555.002 66.64 554.491 65.363L552.634 66.1058C553.248 67.6412 554.167 69.0317 555.377 70.2755L556.81 68.8808ZM554.494 65.37C553.976 64.0476 553.719 62.6868 553.719 61.2812H551.719C551.719 62.9382 552.024 64.5461 552.631 66.0988L554.494 65.37ZM553.719 61.2812C553.719 59.3662 554.202 57.662 555.159 56.1422L553.466 55.0766C552.298 56.9318 551.719 59.0088 551.719 61.2812H553.719ZM555.16 56.1394C556.01 54.7796 557.043 53.8447 558.251 53.2812L557.405 51.4688C555.8 52.2178 554.49 53.4391 553.465 55.0794L555.16 56.1394ZM558.699 52.8658C561.22 48.3922 563.41 43.8534 565.271 39.2497L563.417 38.5003C561.59 43.0216 559.436 47.4828 556.957 51.8842L558.699 52.8658ZM565.271 39.2497C567.126 34.6586 568.901 29.6482 570.595 24.2198L568.686 23.6239C567.005 29.008 565.249 33.9664 563.417 38.5003L565.271 39.2497ZM569.772 24.9133L583.975 23.0383L583.713 21.0555L569.51 22.9305L569.772 24.9133ZM582.845 22.093C583.22 30.2206 583.564 36.4651 583.878 40.8218L585.872 40.6782C585.561 36.3474 585.218 30.1232 584.843 22.0008L582.845 22.093ZM583.877 40.8198C584.19 45.2902 584.457 48.5858 584.677 50.6977L586.666 50.4898C586.45 48.4142 586.185 45.1473 585.873 40.6802L583.877 40.8198ZM584.675 50.6704C584.861 53.0906 584.953 55.1889 584.953 56.9688H586.953C586.953 55.1236 586.858 52.9719 586.669 50.5171L584.675 50.6704ZM584.953 56.9688C584.953 58.5674 584.827 59.6648 584.622 60.3309L586.534 60.9191C586.829 59.9602 586.953 58.6201 586.953 56.9688H584.953ZM586.084 61.4874C588.993 59.78 591.35 58.1331 593.134 56.5435L591.804 55.0502C590.15 56.5231 587.913 58.095 585.072 59.7626L586.084 61.4874ZM592.469 56.7969H596.5V54.7969H592.469V56.7969ZM595.741 55.1453C593.498 57.758 591.185 59.9921 588.806 61.8529L590.038 63.4283C592.534 61.4766 594.94 59.1482 597.259 56.4484L595.741 55.1453ZM588.801 61.8568C586.433 63.7326 583.942 65.4238 581.329 66.9305L582.328 68.6632C585.026 67.1075 587.598 65.3611 590.043 63.4245L588.801 61.8568ZM581.104 67.1069C579.321 68.9783 577.074 70.3802 574.337 71.3024L574.976 73.1976C577.989 72.1823 580.523 70.6155 582.552 68.4868L581.104 67.1069ZM574.326 71.3061C571.937 72.1421 569.409 72.5625 566.734 72.5625V74.5625C569.622 74.5625 572.375 74.1079 574.987 73.1939L574.326 71.3061ZM563.688 66.9688C566.282 66.9688 568.465 66.2566 570.127 64.7385L568.779 63.2615C567.567 64.3684 565.906 64.9688 563.688 64.9688V66.9688ZM570.126 64.7399C572.114 62.9325 573.031 60.3123 573.031 57.0625H571.031C571.031 59.9377 570.23 61.9425 568.78 63.2601L570.126 64.7399ZM573.031 57.0625C573.031 55.7445 572.951 54.1061 572.794 52.154L570.8 52.3148C570.955 54.2376 571.031 55.818 571.031 57.0625H573.031ZM572.794 52.1527L572.559 49.2933L570.566 49.4567L570.8 52.3161L572.794 52.1527ZM572.556 49.2618C572.276 46.8043 571.996 43.9543 571.715 40.7107L569.722 40.8831C570.004 44.1395 570.286 47.0082 570.569 49.4882L572.556 49.2618ZM571.716 40.7174L571.2 34.2487L569.206 34.4076L569.722 40.8763L571.716 40.7174ZM569.248 34.0304C568.353 36.9014 567.288 39.7583 566.052 42.6013L567.886 43.3987C569.15 40.4917 570.241 37.5674 571.158 34.6258L569.248 34.0304ZM566.053 42.5976C564.813 45.419 563.307 48.5568 561.532 52.0119L563.311 52.9256C565.1 49.4432 566.624 46.2685 567.884 43.4024L566.053 42.5976ZM561.938 53.3438C563.162 54.0208 563.625 54.8313 563.625 55.7969H565.625C565.625 53.9499 564.62 52.5417 562.906 51.5937L561.938 53.3438ZM563.625 55.7969C563.625 56.8298 563.321 57.6785 562.73 58.3937L564.27 59.6688C565.179 58.5715 565.625 57.2639 565.625 55.7969H563.625ZM562.724 58.4007C562.095 59.1753 561.345 59.5312 560.406 59.5312V61.5312C561.968 61.5312 563.28 60.8872 564.276 59.6618L562.724 58.4007ZM560.406 59.5312C559.859 59.5312 559.448 59.4621 559.149 59.3551L558.476 61.2386C559.052 61.4442 559.704 61.5312 560.406 61.5312V59.5312ZM559.232 59.3889C559.079 59.3183 558.897 59.1671 558.723 58.8184L556.934 59.7128C557.259 60.3641 557.734 60.9004 558.393 61.2048L559.232 59.3889ZM556.828 59.2656C556.828 61.6749 557.294 63.6574 558.417 65.013L559.958 63.737C559.268 62.9051 558.828 61.4813 558.828 59.2656H556.828ZM558.427 65.0239C559.602 66.4015 561.449 66.9688 563.688 66.9688V64.9688C561.738 64.9688 560.586 64.4735 559.948 63.7261L558.427 65.0239Z" fill="white"/>
</svg>
